<svg xmlns="http://www.w3.org/2000/svg" xmlns:xlink="http://www.w3.org/1999/xlink" width="816" zoomAndPan="magnify" viewBox="0 0 612 791.999994" height="1056" preserveAspectRatio="xMidYMid meet" version="1.2"><defs><clipPath id="4e88d8af2c"><path d="M 295 151.59375 L 446.625 151.59375 L 446.625 365 L 295 365 Z M 295 151.59375 "/></clipPath><clipPath id="15b35d6db9"><path d="M 165.375 254 L 324 254 L 324 474 L 165.375 474 Z M 165.375 254 "/></clipPath></defs><g id="0851e3a88f"><rect x="0" width="612" y="0" height="791.999994" style="fill:#ffffff;fill-opacity:1;stroke:none;"/><rect x="0" width="612" y="0" height="791.999994" style="fill:#ffffff;fill-opacity:1;stroke:none;"/><path style=" stroke:none;fill-rule:nonzero;fill:#f47820;fill-opacity:1;" d="M 229.71875 377.035156 C 228.859375 386.558594 228.859375 396.589844 229.714844 406.117188 C 239.238281 406.976562 249.269531 406.976562 258.796875 406.117188 C 259.65625 396.597656 259.65625 386.566406 258.800781 377.039062 C 249.277344 376.179688 239.246094 376.179688 229.71875 377.035156 Z M 229.71875 377.035156 "/><path style=" stroke:none;fill-rule:nonzero;fill:#f47820;fill-opacity:1;" d="M 231.667969 419.992188 C 232.582031 424.632812 233.734375 428.992188 235.132812 432.90625 C 238.648438 442.757812 242.597656 446.429688 244.257812 446.429688 C 245.917969 446.429688 249.867188 442.757812 253.382812 432.90625 C 254.777344 429 255.929688 424.644531 256.839844 420.007812 C 248.535156 420.582031 239.976562 420.578125 231.667969 419.992188 Z M 231.667969 419.992188 "/><path style=" stroke:none;fill-rule:nonzero;fill:#f47820;fill-opacity:1;" d="M 264.332031 442.609375 C 278.453125 437.035156 289.71875 425.769531 295.289062 411.652344 C 288.492188 414.683594 280.15625 416.929688 271.070312 418.390625 C 269.609375 427.476562 267.363281 435.8125 264.332031 442.609375 Z M 264.332031 442.609375 "/><path style=" stroke:none;fill-rule:nonzero;fill:#f47820;fill-opacity:1;" d="M 215.84375 404.164062 C 215.257812 395.859375 215.253906 387.296875 215.832031 378.992188 C 211.195312 379.902344 206.839844 381.054688 202.929688 382.449219 C 193.074219 385.96875 189.402344 389.914062 189.402344 391.578125 C 189.402344 393.238281 193.074219 397.183594 202.929688 400.703125 C 206.839844 402.101562 211.199219 403.25 215.84375 404.164062 Z M 215.84375 404.164062 "/><path style=" stroke:none;fill-rule:nonzero;fill:#f47820;fill-opacity:1;" d="M 193.203125 411.597656 C 198.777344 425.761719 210.074219 437.058594 224.238281 442.632812 C 221.199219 435.824219 218.941406 427.472656 217.46875 418.367188 C 208.363281 416.894531 200.011719 414.636719 193.203125 411.597656 Z M 193.203125 411.597656 "/><path style=" stroke:none;fill-rule:nonzero;fill:#f47820;fill-opacity:1;" d="M 272.660156 378.988281 C 273.25 387.292969 273.253906 395.855469 272.679688 404.164062 C 277.316406 403.25 281.675781 402.101562 285.585938 400.703125 C 295.441406 397.183594 299.113281 393.238281 299.113281 391.578125 C 299.113281 389.914062 295.441406 385.96875 285.585938 382.449219 C 281.671875 381.054688 277.308594 379.902344 272.660156 378.988281 Z M 272.660156 378.988281 "/><path style=" stroke:none;fill-rule:nonzero;fill:#f47820;fill-opacity:1;" d="M 256.847656 363.175781 C 255.933594 358.527344 254.785156 354.164062 253.382812 350.246094 C 249.867188 340.394531 245.917969 336.722656 244.257812 336.722656 C 242.597656 336.722656 238.648438 340.394531 235.132812 350.246094 C 233.734375 354.15625 232.585938 358.515625 231.671875 363.15625 C 239.980469 362.578125 248.539062 362.585938 256.847656 363.175781 Z M 256.847656 363.175781 "/><path style=" stroke:none;fill-rule:nonzero;fill:#f47820;fill-opacity:1;" d="M 264.257812 340.515625 C 267.300781 347.328125 269.5625 355.6875 271.035156 364.796875 C 280.144531 366.269531 288.507812 368.53125 295.316406 371.574219 C 289.746094 357.394531 278.4375 346.089844 264.257812 340.515625 Z M 264.257812 340.515625 "/><path style=" stroke:none;fill-rule:nonzero;fill:#f47820;fill-opacity:1;" d="M 199.6875 295.582031 L 288.828125 295.582031 C 292.605469 295.582031 295.683594 292.507812 295.683594 288.726562 C 295.683594 284.945312 292.605469 281.871094 288.828125 281.871094 L 199.6875 281.871094 C 195.910156 281.871094 192.832031 284.945312 192.832031 288.726562 C 192.832031 292.507812 195.910156 295.582031 199.6875 295.582031 Z M 199.6875 295.582031 "/><g clip-rule="nonzero" clip-path="url(#4e88d8af2c)"><path style=" stroke:none;fill-rule:nonzero;fill:#f47820;fill-opacity:1;" d="M 431.855469 151.59375 L 310.355469 151.59375 C 302.265625 151.59375 295.683594 158.175781 295.683594 166.265625 L 295.683594 240.730469 L 308.4375 240.730469 C 324.089844 240.730469 336.824219 253.464844 336.824219 269.117188 L 336.824219 302.441406 L 419.105469 302.441406 C 422.890625 302.441406 425.960938 305.511719 425.960938 309.296875 C 425.960938 313.082031 422.890625 316.152344 419.105469 316.152344 L 336.824219 316.152344 L 336.824219 329.867188 L 419.105469 329.867188 C 422.890625 329.867188 425.960938 332.9375 425.960938 336.722656 C 425.960938 340.511719 422.890625 343.582031 419.105469 343.582031 L 336.824219 343.582031 L 336.824219 364.148438 L 431.855469 364.148438 C 439.949219 364.148438 446.53125 357.566406 446.53125 349.476562 L 446.53125 166.265625 C 446.53125 158.175781 439.949219 151.59375 431.855469 151.59375 Z M 411.269531 216.828125 C 409.332031 220.0625 405.125 221.140625 401.863281 219.183594 L 377.964844 204.84375 L 377.964844 229.636719 L 387.886719 234.597656 C 391.273438 236.289062 392.644531 240.410156 390.953125 243.796875 C 389.261719 247.183594 385.140625 248.554688 381.753906 246.863281 L 371.105469 241.539062 L 360.457031 246.863281 C 357.074219 248.554688 352.953125 247.183594 351.257812 243.796875 C 349.566406 240.410156 350.9375 236.289062 354.328125 234.597656 L 364.25 229.636719 L 364.25 204.84375 L 340.347656 219.183594 C 337.101562 221.128906 332.890625 220.078125 330.941406 216.828125 C 328.996094 213.582031 330.046875 209.371094 333.292969 207.421875 L 364.25 188.851562 L 364.25 172.164062 C 364.25 168.375 367.320312 165.304688 371.105469 165.304688 C 374.890625 165.304688 377.960938 168.375 377.960938 172.164062 L 377.960938 188.851562 L 408.917969 207.421875 C 412.164062 209.371094 413.21875 213.582031 411.269531 216.828125 Z M 411.269531 216.828125 "/></g><g clip-rule="nonzero" clip-path="url(#15b35d6db9)"><path style=" stroke:none;fill-rule:nonzero;fill:#f47820;fill-opacity:1;" d="M 308.4375 254.441406 L 180.078125 254.441406 C 171.988281 254.441406 165.40625 261.027344 165.40625 269.117188 L 165.40625 459.183594 C 165.40625 467.273438 171.988281 473.859375 180.078125 473.859375 L 308.4375 473.859375 C 316.527344 473.859375 323.109375 467.273438 323.109375 459.183594 L 323.109375 269.117188 C 323.109375 261.027344 316.527344 254.441406 308.4375 254.441406 Z M 199.6875 268.15625 L 288.828125 268.15625 C 300.167969 268.15625 309.398438 277.382812 309.398438 288.726562 C 309.398438 300.070312 300.167969 309.296875 288.828125 309.296875 L 199.6875 309.296875 C 188.347656 309.296875 179.121094 300.070312 179.121094 288.726562 C 179.121094 277.382812 188.347656 268.15625 199.6875 268.15625 Z M 244.257812 460.144531 C 206.449219 460.144531 175.691406 429.386719 175.691406 391.578125 C 175.691406 353.769531 206.449219 323.011719 244.257812 323.011719 C 282.066406 323.011719 312.824219 353.769531 312.824219 391.578125 C 312.824219 429.386719 282.066406 460.144531 244.257812 460.144531 Z M 244.257812 460.144531 "/></g><path style=" stroke:none;fill-rule:nonzero;fill:#f47820;fill-opacity:1;" d="M 224.191406 340.542969 C 210.066406 346.113281 198.796875 357.382812 193.222656 371.503906 C 200.023438 368.472656 208.359375 366.226562 217.449219 364.769531 C 218.910156 355.679688 221.15625 347.339844 224.191406 340.542969 Z M 224.191406 340.542969 "/></g></svg>