<svg xmlns="http://www.w3.org/2000/svg" xmlns:xlink="http://www.w3.org/1999/xlink" width="816" zoomAndPan="magnify" viewBox="0 0 612 791.999994" height="1056" preserveAspectRatio="xMidYMid meet" version="1.2"><defs><clipPath id="5836964c78"><path d="M 168.4375 224.058594 L 471.4375 224.058594 L 471.4375 508 L 168.4375 508 Z M 168.4375 224.058594 "/></clipPath></defs><g id="d39ec0ef25"><rect x="0" width="612" y="0" height="791.999994" style="fill:#ffffff;fill-opacity:1;stroke:none;"/><rect x="0" width="612" y="0" height="791.999994" style="fill:#ffffff;fill-opacity:1;stroke:none;"/><g clip-rule="nonzero" clip-path="url(#5836964c78)"><path style=" stroke:none;fill-rule:nonzero;fill:#006770;fill-opacity:1;" d="M 345.679688 224.058594 C 334.925781 224.058594 326.171875 232.832031 326.171875 243.617188 L 326.171875 312.390625 C 326.171875 323.179688 334.308594 331.316406 345.097656 331.316406 L 357.386719 331.316406 C 356.566406 337.917969 354.027344 341.300781 348.15625 344.847656 C 345.726562 346.304688 344.570312 349.203125 345.332031 351.933594 C 346.089844 354.660156 348.574219 356.554688 351.410156 356.554688 C 360.804688 356.554688 382.917969 354 393.480469 331.316406 L 452.359375 331.316406 C 463.148438 331.316406 471.285156 323.179688 471.285156 312.390625 L 471.285156 243.617188 C 471.285156 232.832031 462.53125 224.058594 451.777344 224.058594 Z M 181.058594 242.988281 C 174.097656 242.988281 168.4375 248.644531 168.4375 255.605469 L 168.4375 444.886719 C 168.4375 451.84375 174.097656 457.503906 181.058594 457.503906 L 446.046875 457.503906 C 453.007812 457.503906 458.667969 451.84375 458.667969 444.886719 L 458.667969 343.9375 L 446.046875 343.9375 L 446.0625 444.886719 L 446.046875 444.886719 L 446.046875 407.03125 L 181.058594 407.03125 L 181.058594 255.605469 L 313.550781 255.605469 L 313.550781 242.988281 Z M 367.183594 268.222656 C 372.40625 268.222656 376.644531 272.464844 376.644531 277.6875 C 376.644531 282.914062 372.40625 287.152344 367.183594 287.152344 C 361.957031 287.152344 357.71875 282.914062 357.71875 277.6875 C 357.71875 272.464844 361.957031 268.222656 367.183594 268.222656 Z M 398.726562 268.222656 C 403.953125 268.222656 408.191406 272.464844 408.191406 277.6875 C 408.191406 282.914062 403.953125 287.152344 398.726562 287.152344 C 393.503906 287.152344 389.265625 282.914062 389.265625 277.6875 C 389.265625 272.464844 393.503906 268.222656 398.726562 268.222656 Z M 430.273438 268.222656 C 435.5 268.222656 439.738281 272.464844 439.738281 277.6875 C 439.738281 282.914062 435.5 287.152344 430.273438 287.152344 C 425.050781 287.152344 420.8125 282.914062 420.8125 277.6875 C 420.8125 272.464844 425.050781 268.222656 430.273438 268.222656 Z M 414.5 425.957031 L 427.121094 425.957031 L 427.121094 438.574219 L 414.5 438.574219 Z M 275.695312 470.121094 L 275.695312 482.742188 L 256.769531 482.742188 C 244.148438 482.742188 237.839844 489.050781 237.839844 501.667969 L 237.839844 507.980469 L 389.265625 507.980469 L 389.265625 501.667969 C 389.265625 489.050781 382.957031 482.742188 370.335938 482.742188 L 351.410156 482.742188 L 351.410156 470.121094 Z M 275.695312 470.121094 "/></g></g></svg>