<svg xmlns="http://www.w3.org/2000/svg" xmlns:xlink="http://www.w3.org/1999/xlink" width="816" zoomAndPan="magnify" viewBox="0 0 612 791.999994" height="1056" preserveAspectRatio="xMidYMid meet" version="1.2"><defs><clipPath id="ef1ed4ee07"><path d="M 166.378906 167 L 445 167 L 445 476 L 166.378906 476 Z M 166.378906 167 "/></clipPath></defs><g id="a385c549fe"><rect x="0" width="612" y="0" height="791.999994" style="fill:#ffffff;fill-opacity:1;stroke:none;"/><rect x="0" width="612" y="0" height="791.999994" style="fill:#ffffff;fill-opacity:1;stroke:none;"/><g clip-rule="nonzero" clip-path="url(#ef1ed4ee07)"><path style=" stroke:none;fill-rule:nonzero;fill:#f47820;fill-opacity:1;" d="M 409.121094 425.984375 C 410 426.851562 410.679688 427.851562 411.152344 428.992188 C 411.625 430.132812 411.855469 431.320312 411.847656 432.554688 C 411.859375 433.890625 411.578125 435.160156 411.007812 436.367188 L 382.734375 436.367188 L 382.734375 423.292969 L 402.585938 423.292969 C 403.808594 423.296875 404.984375 423.53125 406.117188 423.996094 C 407.25 424.460938 408.25 425.125 409.121094 425.984375 Z M 382.664062 445.453125 C 382.410156 450.6875 381.117188 455.648438 378.785156 460.339844 L 402.585938 460.339844 C 403.191406 460.34375 403.796875 460.285156 404.394531 460.167969 C 404.992188 460.050781 405.570312 459.875 406.132812 459.644531 C 406.695312 459.410156 407.230469 459.125 407.738281 458.789062 C 408.242188 458.449219 408.710938 458.066406 409.140625 457.636719 C 409.574219 457.207031 409.957031 456.738281 410.292969 456.230469 C 410.632812 455.726562 410.917969 455.191406 411.148438 454.628906 C 411.378906 454.066406 411.554688 453.484375 411.671875 452.886719 C 411.789062 452.289062 411.847656 451.6875 411.847656 451.078125 C 411.855469 450.058594 411.695312 449.066406 411.363281 448.101562 C 411.035156 447.136719 410.554688 446.253906 409.925781 445.453125 Z M 364.28125 475.859375 L 384.691406 475.859375 C 385.136719 475.859375 385.582031 475.816406 386.019531 475.738281 C 386.460938 475.660156 386.886719 475.539062 387.308594 475.382812 C 387.726562 475.226562 388.125 475.035156 388.511719 474.804688 C 388.894531 474.578125 389.257812 474.316406 389.59375 474.023438 C 389.929688 473.730469 390.238281 473.410156 390.519531 473.0625 C 390.800781 472.714844 391.046875 472.34375 391.261719 471.953125 C 391.476562 471.558594 391.652344 471.152344 391.792969 470.726562 C 391.933594 470.304688 392.035156 469.871094 392.101562 469.425781 L 370.289062 469.425781 Z M 362.601562 329.035156 C 364.441406 329.835938 366.363281 330.300781 368.367188 330.433594 C 369.183594 330.496094 370 330.507812 370.816406 330.464844 C 372.609375 330.359375 374.34375 329.988281 376.023438 329.347656 C 378.136719 328.609375 380.035156 327.503906 381.71875 326.027344 C 382.277344 325.539062 382.835938 324.980469 383.433594 324.351562 C 384.757812 322.832031 385.804688 321.144531 386.578125 319.28125 C 387.371094 317.441406 387.835938 315.519531 387.976562 313.515625 C 388.046875 312.710938 388.046875 311.910156 387.976562 311.105469 C 387.863281 309.097656 387.425781 307.160156 386.664062 305.300781 C 385.902344 303.4375 384.859375 301.75 383.535156 300.234375 C 383.023438 299.609375 382.464844 299.027344 381.859375 298.488281 C 380.355469 297.136719 378.667969 296.089844 376.789062 295.34375 C 374.933594 294.550781 373 294.085938 370.988281 293.945312 C 370.464844 293.910156 369.90625 293.910156 369.382812 293.910156 C 369.136719 293.902344 368.890625 293.914062 368.648438 293.945312 C 366.628906 294.046875 364.683594 294.476562 362.808594 295.230469 C 360.933594 295.984375 359.234375 297.023438 357.707031 298.347656 C 357.113281 298.90625 356.554688 299.46875 355.996094 300.0625 C 354.667969 301.582031 353.609375 303.273438 352.816406 305.128906 C 352.042969 306.976562 351.597656 308.898438 351.484375 310.894531 C 351.386719 312.09375 351.410156 313.289062 351.554688 314.480469 C 351.699219 315.675781 351.957031 316.84375 352.335938 317.984375 C 352.714844 319.125 353.203125 320.214844 353.800781 321.257812 C 354.398438 322.300781 355.09375 323.273438 355.890625 324.175781 C 356.402344 324.789062 356.964844 325.359375 357.566406 325.886719 C 359.070312 327.21875 360.746094 328.265625 362.601562 329.035156 Z M 444.144531 307.019531 C 443.847656 302.042969 443.042969 297.152344 441.726562 292.347656 C 435.375 269.289062 417.199219 249.851562 394.648438 241.890625 C 372.09375 233.929688 345.785156 237.632812 326.261719 251.445312 C 327.566406 261.550781 324.640625 271.734375 319.550781 280.429688 C 314.449219 289.140625 307.253906 296.457031 299.554688 302.992188 C 297.703125 304.5625 295.539062 306.4375 295.003906 308.933594 C 294.882812 309.492188 295.367188 317.640625 295.300781 317.648438 C 302.074219 317.199219 308.640625 319.738281 315.296875 321.070312 C 321.957031 322.402344 329.6875 322.21875 334.496094 317.425781 C 334.1875 313.695312 334.292969 309.972656 334.820312 306.261719 L 322.570312 301.164062 C 321.765625 300.929688 321.125 300.472656 320.636719 299.792969 C 320.117188 298.847656 320.53125 297.679688 320.949219 296.6875 L 324.527344 288.167969 C 324.949219 287.160156 325.507812 286.027344 326.566406 285.746094 C 327.386719 285.625 328.160156 285.765625 328.882812 286.171875 L 341.101562 291.398438 C 343.347656 288.269531 346.042969 285.585938 349.183594 283.347656 L 344.109375 270.859375 C 343.785156 270.066406 343.460938 269.164062 343.796875 268.378906 C 344.132812 267.601562 344.988281 267.214844 345.769531 266.894531 L 355.175781 263.066406 C 355.957031 262.75 356.835938 262.433594 357.613281 262.753906 C 358.402344 263.082031 358.800781 263.949219 359.125 264.738281 L 364.238281 277.269531 C 368.03125 276.667969 371.824219 276.679688 375.613281 277.304688 L 380.855469 264.863281 C 381.183594 264.082031 381.585938 263.230469 382.371094 262.910156 C 383.15625 262.589844 384.023438 262.921875 384.796875 263.246094 L 394.152344 267.167969 C 394.921875 267.492188 395.765625 267.882812 396.085938 268.652344 C 396.417969 269.441406 396.085938 270.335938 395.753906 271.125 L 390.519531 283.628906 C 393.660156 285.859375 396.335938 288.558594 398.539062 291.71875 L 410.859375 286.644531 C 411.589844 286.25 412.363281 286.117188 413.179688 286.253906 C 414.21875 286.550781 414.75 287.667969 415.15625 288.664062 L 418.636719 297.199219 C 419.050781 298.21875 419.457031 299.414062 418.910156 300.371094 C 418.414062 301.035156 417.765625 301.480469 416.96875 301.707031 L 404.644531 306.6875 C 405.246094 310.496094 405.234375 314.304688 404.609375 318.109375 L 416.878906 323.261719 C 417.675781 323.496094 418.316406 323.953125 418.800781 324.628906 C 419.328125 325.578125 418.910156 326.753906 418.492188 327.753906 L 414.9375 336.230469 C 414.519531 337.230469 413.972656 338.347656 412.925781 338.636719 C 412.101562 338.761719 411.328125 338.621094 410.597656 338.214844 L 398.328125 333.007812 C 396.050781 336.125 393.34375 338.808594 390.207031 341.0625 L 395.300781 353.519531 C 395.621094 354.308594 395.945312 355.195312 395.613281 355.976562 C 395.285156 356.746094 394.4375 357.132812 393.664062 357.449219 L 384.242188 361.3125 C 383.464844 361.632812 382.589844 361.953125 381.8125 361.632812 C 381.023438 361.308594 380.625 360.441406 380.300781 359.652344 L 375.191406 347.171875 C 371.394531 347.820312 367.601562 347.785156 363.8125 347.066406 L 362.425781 350.417969 C 366.023438 354.871094 369.179688 359.617188 371.894531 364.65625 C 374.605469 369.699219 376.828125 374.945312 378.5625 380.402344 C 380.296875 385.859375 381.511719 391.429688 382.207031 397.109375 C 382.902344 402.792969 383.0625 408.492188 382.695312 414.203125 L 398.609375 414.191406 C 398.261719 411.640625 398.132812 409.074219 398.222656 406.5 C 398.3125 403.925781 398.621094 401.375 399.152344 398.855469 C 399.679688 396.332031 400.421875 393.875 401.371094 391.480469 C 402.324219 389.085938 403.472656 386.789062 404.820312 384.59375 C 410.664062 375.128906 419.789062 368.21875 426.96875 359.71875 C 439.1875 345.246094 445.292969 325.898438 444.144531 307.019531 Z M 240.417969 327.914062 C 240.261719 327.917969 240.109375 327.941406 239.960938 327.984375 L 227.382812 330.816406 C 225.238281 331.300781 223.117188 331.871094 221.019531 332.535156 C 218.921875 333.199219 216.859375 333.949219 214.824219 334.789062 C 212.792969 335.625 210.796875 336.546875 208.84375 337.554688 C 206.886719 338.5625 204.980469 339.648438 203.117188 340.816406 C 201.253906 341.984375 199.441406 343.230469 197.683594 344.550781 C 195.925781 345.871094 194.230469 347.265625 192.589844 348.730469 C 190.949219 350.195312 189.375 351.726562 187.863281 353.324219 C 186.355469 354.921875 184.914062 356.582031 183.542969 358.304688 C 182.175781 360.023438 180.878906 361.796875 179.660156 363.628906 C 178.441406 365.457031 177.300781 367.335938 176.238281 369.261719 C 175.179688 371.1875 174.199219 373.15625 173.304688 375.164062 C 172.410156 377.171875 171.605469 379.214844 170.882812 381.292969 C 170.160156 383.371094 169.527344 385.472656 168.984375 387.605469 C 168.441406 389.734375 167.988281 391.886719 167.628906 394.054688 C 167.265625 396.222656 166.996094 398.402344 166.820312 400.597656 C 166.644531 402.789062 166.558594 404.984375 166.566406 407.183594 L 166.566406 443.597656 C 166.566406 444.480469 166.613281 445.363281 166.699219 446.242188 C 166.785156 447.121094 166.914062 447.992188 167.085938 448.859375 C 167.257812 449.722656 167.472656 450.578125 167.730469 451.425781 C 167.984375 452.269531 168.28125 453.097656 168.621094 453.914062 C 168.957031 454.730469 169.335938 455.527344 169.75 456.308594 C 170.167969 457.085938 170.621094 457.84375 171.109375 458.578125 C 171.601562 459.3125 172.125 460.019531 172.683594 460.703125 C 173.246094 461.386719 173.835938 462.039062 174.460938 462.664062 C 175.085938 463.289062 175.738281 463.878906 176.417969 464.441406 C 177.101562 465 177.808594 465.527344 178.542969 466.019531 C 179.277344 466.511719 180.03125 466.964844 180.808594 467.382812 C 181.589844 467.796875 182.386719 468.175781 183.199219 468.515625 C 184.015625 468.855469 184.84375 469.152344 185.691406 469.410156 C 186.535156 469.667969 187.390625 469.882812 188.253906 470.054688 C 189.121094 470.230469 189.992188 470.359375 190.871094 470.445312 C 191.75 470.535156 192.628906 470.578125 193.515625 470.582031 L 203.546875 470.582031 L 203.546875 404.5625 C 203.546875 404.214844 203.578125 403.875 203.644531 403.539062 C 203.714844 403.199219 203.8125 402.871094 203.945312 402.554688 C 204.074219 402.238281 204.238281 401.933594 204.429688 401.648438 C 204.621094 401.363281 204.835938 401.097656 205.082031 400.855469 C 205.324219 400.609375 205.589844 400.394531 205.875 400.203125 C 206.160156 400.011719 206.464844 399.847656 206.78125 399.71875 C 207.097656 399.585938 207.425781 399.484375 207.765625 399.417969 C 208.101562 399.351562 208.441406 399.316406 208.789062 399.316406 C 209.132812 399.316406 209.472656 399.351562 209.808594 399.417969 C 210.148438 399.484375 210.476562 399.585938 210.792969 399.71875 C 211.113281 399.847656 211.414062 400.011719 211.699219 400.203125 C 211.984375 400.394531 212.25 400.609375 212.496094 400.855469 C 212.738281 401.097656 212.957031 401.363281 213.148438 401.648438 C 213.335938 401.933594 213.5 402.238281 213.632812 402.554688 C 213.761719 402.871094 213.863281 403.199219 213.929688 403.539062 C 213.996094 403.875 214.03125 404.214844 214.03125 404.5625 L 214.03125 470.582031 L 265.023438 470.582031 L 265.023438 349.859375 L 242.160156 328.71875 C 241.683594 328.226562 241.101562 327.957031 240.417969 327.914062 Z M 340.863281 332.703125 L 335.722656 334.800781 C 340.019531 337.253906 344.050781 340.082031 347.816406 343.292969 L 348.863281 340.8125 C 345.773438 338.527344 343.105469 335.824219 340.867188 332.703125 Z M 368.332031 457.578125 C 369.613281 455.472656 370.585938 453.230469 371.25 450.855469 C 371.914062 448.484375 372.246094 446.0625 372.25 443.597656 L 372.25 407.183594 C 372.257812 404.984375 372.171875 402.789062 371.996094 400.597656 C 371.820312 398.40625 371.550781 396.226562 371.191406 394.058594 C 370.828125 391.890625 370.378906 389.742188 369.835938 387.609375 C 369.292969 385.480469 368.660156 383.375 367.9375 381.300781 C 367.21875 379.222656 366.410156 377.179688 365.515625 375.171875 C 364.625 373.164062 363.648438 371.195312 362.585938 369.269531 C 361.527344 367.34375 360.386719 365.46875 359.167969 363.636719 C 357.949219 361.808594 356.65625 360.035156 355.289062 358.3125 C 353.917969 356.59375 352.480469 354.933594 350.96875 353.335938 C 349.460938 351.738281 347.886719 350.207031 346.25 348.742188 C 344.609375 347.273438 342.910156 345.882812 341.15625 344.558594 C 339.398438 343.238281 337.589844 341.992188 335.726562 340.824219 C 333.863281 339.65625 331.957031 338.570312 330.003906 337.5625 C 328.050781 336.554688 326.054688 335.632812 324.023438 334.792969 C 321.992188 333.953125 319.929688 333.203125 317.832031 332.539062 C 315.738281 331.875 313.617188 331.300781 311.472656 330.816406 L 298.957031 327.984375 C 298.53125 327.878906 298.113281 327.902344 297.699219 328.050781 C 297.402344 328.132812 297.144531 328.285156 296.929688 328.507812 L 275.507812 348.324219 L 275.507812 470.582031 L 324.820312 470.582031 L 324.820312 404.5625 C 324.820312 404.214844 324.855469 403.875 324.921875 403.539062 C 324.988281 403.199219 325.089844 402.871094 325.21875 402.554688 C 325.351562 402.238281 325.511719 401.933594 325.703125 401.648438 C 325.894531 401.363281 326.113281 401.097656 326.355469 400.855469 C 326.601562 400.609375 326.863281 400.394531 327.152344 400.203125 C 327.4375 400.011719 327.738281 399.847656 328.058594 399.71875 C 328.375 399.585938 328.703125 399.484375 329.039062 399.417969 C 329.378906 399.351562 329.71875 399.316406 330.0625 399.316406 C 330.40625 399.316406 330.75 399.351562 331.085938 399.417969 C 331.425781 399.484375 331.75 399.585938 332.070312 399.71875 C 332.386719 399.847656 332.691406 400.011719 332.976562 400.203125 C 333.261719 400.394531 333.527344 400.609375 333.769531 400.855469 C 334.015625 401.097656 334.230469 401.363281 334.421875 401.648438 C 334.613281 401.933594 334.777344 402.238281 334.90625 402.554688 C 335.039062 402.871094 335.136719 403.199219 335.207031 403.539062 C 335.273438 403.875 335.304688 404.214844 335.304688 404.5625 L 335.304688 470.582031 L 345.300781 470.582031 C 347.089844 470.566406 348.859375 470.394531 350.613281 470.058594 C 352.441406 469.683594 354.210938 469.125 355.921875 468.386719 C 357.632812 467.644531 359.25 466.738281 360.773438 465.667969 C 362.300781 464.59375 363.699219 463.375 364.972656 462.011719 C 366.246094 460.652344 367.367188 459.171875 368.332031 457.578125 Z M 312.890625 248.949219 C 311.148438 246.890625 309.308594 244.921875 307.371094 243.042969 C 305.433594 241.167969 303.402344 239.394531 301.285156 237.726562 C 299.167969 236.054688 296.96875 234.496094 294.691406 233.046875 C 292.417969 231.601562 290.074219 230.269531 287.664062 229.058594 C 285.253906 227.847656 282.789062 226.761719 280.269531 225.796875 C 277.746094 224.835938 275.183594 224.003906 272.582031 223.300781 C 269.976562 222.597656 267.34375 222.027344 264.679688 221.589844 C 262.019531 221.152344 259.339844 220.851562 256.648438 220.683594 C 255.035156 220.574219 252.074219 222.449219 250.648438 223.136719 C 248.917969 223.96875 247.207031 224.859375 245.566406 225.859375 C 242.023438 228.019531 238.808594 230.589844 235.917969 233.574219 C 229.800781 239.875 226 247.308594 223.617188 255.675781 C 223.617188 278.800781 248.289062 305.238281 271.757812 304.527344 C 293.488281 303.871094 315.4375 279.960938 317.523438 258.835938 C 317.628906 257.785156 317.679688 256.730469 317.671875 255.675781 C 317.671875 253.628906 314.308594 250.640625 313.0625 249.152344 Z M 221.199219 237.660156 C 227.925781 226.566406 238.707031 217.84375 250.710938 213.167969 C 252.226562 212.527344 253.804688 212.085938 255.433594 211.84375 C 256.800781 211.714844 258.164062 211.726562 259.527344 211.871094 C 264.183594 212.277344 268.777344 213.039062 273.308594 214.160156 C 277.84375 215.285156 282.261719 216.753906 286.566406 218.570312 C 290.867188 220.382812 295.003906 222.523438 298.972656 224.984375 C 302.941406 227.449219 306.695312 230.207031 310.230469 233.257812 C 313.734375 236.296875 316.953125 239.609375 319.890625 243.195312 C 320.3125 243.71875 320.695312 244.210938 321.042969 244.699219 C 327.71875 219.605469 323.523438 206.988281 317.691406 200.066406 C 309.757812 190.597656 298.46875 191.367188 272.117188 179.0625 C 265.71875 176.058594 259.988281 173.015625 255.023438 170.1875 C 253.945312 169.5625 252.820312 169.042969 251.648438 168.621094 C 250.476562 168.203125 249.277344 167.890625 248.050781 167.683594 C 246.820312 167.476562 245.585938 167.382812 244.339844 167.394531 C 243.097656 167.410156 241.863281 167.535156 240.640625 167.773438 C 239.417969 168.007812 238.226562 168.351562 237.066406 168.796875 C 235.902344 169.246094 234.792969 169.796875 233.726562 170.441406 C 232.664062 171.089844 231.667969 171.828125 230.734375 172.652344 C 229.804688 173.476562 228.953125 174.378906 228.183594 175.359375 C 224.957031 179.492188 222.203125 183.921875 219.929688 188.648438 C 217.65625 193.375 215.910156 198.285156 214.695312 203.386719 C 213.9375 206.757812 213.433594 210.167969 213.1875 213.617188 C 212.941406 217.0625 212.953125 220.507812 213.226562 223.953125 C 213.5 227.398438 214.027344 230.804688 214.8125 234.171875 C 215.597656 237.535156 216.628906 240.824219 217.910156 244.035156 C 218.859375 241.832031 219.957031 239.707031 221.203125 237.660156 Z M 287.425781 310.445312 C 284.550781 311.585938 281.589844 312.425781 278.542969 312.964844 C 275.5 313.503906 272.429688 313.726562 269.339844 313.640625 C 266.246094 313.554688 263.195312 313.15625 260.183594 312.445312 C 257.175781 311.738281 254.265625 310.730469 251.460938 309.429688 L 250.515625 322.1875 L 269.425781 339.65625 L 288.296875 322.214844 Z M 287.425781 310.445312 "/></g></g></svg>