<svg xmlns="http://www.w3.org/2000/svg" xmlns:xlink="http://www.w3.org/1999/xlink" width="816" zoomAndPan="magnify" viewBox="0 0 612 791.999994" height="1056" preserveAspectRatio="xMidYMid meet" version="1.2"><defs><clipPath id="1b528650a1"><path d="M 117 222.054688 L 495 222.054688 L 495 432 L 117 432 Z M 117 222.054688 "/></clipPath></defs><g id="9945b0eb97"><rect x="0" width="612" y="0" height="791.999994" style="fill:#ffffff;fill-opacity:1;stroke:none;"/><rect x="0" width="612" y="0" height="791.999994" style="fill:#ffffff;fill-opacity:1;stroke:none;"/><path style=" stroke:none;fill-rule:nonzero;fill:#006770;fill-opacity:1;" d="M 387.285156 507.652344 C 399.699219 489.027344 391.421875 463.503906 369.347656 455.226562 C 361.070312 452.464844 352.101562 452.464844 344.511719 455.914062 C 330.714844 462.125 323.128906 474.542969 323.128906 488.339844 C 323.128906 495.238281 325.199219 502.136719 328.648438 507.652344 C 318.300781 514.550781 311.398438 526.28125 311.398438 539.386719 L 311.398438 562.84375 C 311.398438 566.980469 314.160156 569.742188 318.300781 569.742188 C 322.4375 569.742188 325.199219 566.980469 325.199219 562.84375 L 325.199219 539.386719 C 325.199219 530.417969 330.027344 522.140625 338.304688 517.3125 L 338.996094 518 C 339.683594 518.691406 340.375 518.691406 341.0625 519.382812 L 343.824219 520.761719 C 344.511719 521.449219 345.894531 521.449219 347.273438 522.140625 L 348.652344 522.140625 C 354.859375 524.210938 361.070312 524.210938 367.277344 522.140625 L 368.65625 522.140625 C 370.039062 522.140625 370.726562 521.449219 372.105469 520.761719 C 372.796875 520.761719 374.175781 520.070312 374.867188 519.382812 L 376.9375 518 L 377.625 517.3125 C 385.902344 521.449219 390.734375 529.730469 390.734375 539.386719 L 390.734375 562.84375 C 390.734375 566.980469 393.492188 569.742188 397.632812 569.742188 C 401.769531 569.742188 404.53125 566.980469 404.53125 562.84375 L 404.53125 539.386719 C 404.53125 526.96875 398.320312 515.242188 387.285156 507.652344 Z M 358.308594 467.644531 C 370.039062 467.644531 379.695312 476.609375 379.695312 488.339844 C 379.695312 494.546875 376.9375 500.753906 372.105469 504.894531 C 366.589844 509.722656 358.308594 511.101562 351.410156 508.34375 C 350.03125 507.652344 349.34375 507.652344 347.960938 506.964844 C 346.582031 506.273438 345.894531 505.585938 344.511719 504.894531 C 339.683594 500.753906 336.925781 495.238281 336.925781 488.339844 C 336.925781 477.300781 346.582031 467.644531 358.308594 467.644531 Z M 358.308594 467.644531 "/><path style=" stroke:none;fill-rule:nonzero;fill:#006770;fill-opacity:1;" d="M 492.140625 507.652344 C 504.558594 489.027344 496.28125 463.503906 474.203125 455.226562 C 465.925781 452.464844 456.957031 452.464844 449.371094 455.914062 C 435.574219 462.125 427.984375 474.542969 427.984375 488.339844 C 427.984375 495.238281 430.054688 502.136719 433.503906 507.652344 C 423.15625 514.550781 416.257812 526.28125 416.257812 539.386719 L 416.257812 562.84375 C 416.257812 566.980469 419.015625 569.742188 423.15625 569.742188 C 427.296875 569.742188 430.054688 566.980469 430.054688 562.84375 L 430.054688 539.386719 C 430.054688 530.417969 434.882812 522.140625 443.160156 517.3125 L 443.851562 518 C 444.542969 518.691406 445.230469 518.691406 445.921875 519.382812 L 448.679688 520.761719 C 449.371094 521.449219 450.75 521.449219 452.128906 522.140625 L 453.507812 522.140625 C 459.71875 524.210938 465.925781 524.210938 472.136719 522.140625 L 473.515625 522.140625 C 474.894531 522.140625 475.585938 521.449219 476.964844 520.761719 C 477.652344 520.761719 479.035156 520.070312 479.722656 519.382812 L 481.792969 518 L 482.484375 517.3125 C 490.761719 521.449219 495.589844 529.730469 495.589844 539.386719 L 495.589844 562.84375 C 495.589844 566.980469 498.347656 569.742188 502.488281 569.742188 C 506.628906 569.742188 509.386719 566.980469 509.386719 562.84375 L 509.386719 539.386719 C 508.699219 526.96875 502.488281 515.242188 492.140625 507.652344 Z M 462.476562 467.644531 C 474.203125 467.644531 483.863281 476.609375 483.863281 488.339844 C 483.863281 494.546875 481.101562 500.753906 476.273438 504.894531 C 470.753906 509.722656 462.476562 511.101562 455.578125 508.34375 C 454.199219 507.652344 453.507812 507.652344 452.128906 506.964844 C 450.75 506.273438 450.058594 505.585938 448.679688 504.894531 C 443.851562 500.753906 441.09375 495.238281 441.09375 488.339844 C 441.78125 477.300781 451.441406 467.644531 462.476562 467.644531 Z M 462.476562 467.644531 "/><path style=" stroke:none;fill-rule:nonzero;fill:#006770;fill-opacity:1;" d="M 283.117188 507.652344 C 295.535156 489.027344 287.253906 463.503906 265.179688 455.226562 C 256.902344 452.464844 247.933594 452.464844 240.347656 455.914062 C 226.546875 462.125 218.960938 474.542969 218.960938 488.339844 C 218.960938 495.238281 221.03125 502.136719 224.480469 507.652344 C 214.132812 514.550781 207.234375 526.28125 207.234375 539.386719 L 207.234375 562.84375 C 207.234375 566.980469 209.992188 569.742188 214.132812 569.742188 C 218.269531 569.742188 221.03125 566.980469 221.03125 562.84375 L 221.03125 539.386719 C 221.03125 530.417969 225.859375 522.140625 234.136719 517.3125 L 234.828125 518 C 235.515625 518.691406 236.207031 518.691406 236.898438 519.382812 L 239.65625 520.761719 C 240.347656 521.449219 241.726562 521.449219 243.105469 522.140625 L 244.484375 522.140625 C 250.695312 524.210938 256.902344 524.210938 263.109375 522.140625 L 264.492188 522.140625 C 265.871094 522.140625 266.558594 521.449219 267.941406 520.761719 C 268.628906 520.761719 270.007812 520.070312 270.699219 519.382812 L 272.769531 518 L 273.457031 517.3125 C 281.738281 521.449219 286.566406 529.730469 286.566406 539.386719 L 286.566406 562.84375 C 286.566406 566.980469 289.324219 569.742188 293.464844 569.742188 C 297.601562 569.742188 300.363281 566.980469 300.363281 562.84375 L 300.363281 539.386719 C 299.671875 526.96875 293.464844 515.242188 283.117188 507.652344 Z M 253.453125 467.644531 C 265.179688 467.644531 274.839844 476.609375 274.839844 488.339844 C 274.839844 494.546875 272.078125 500.753906 267.25 504.894531 C 261.730469 509.722656 253.453125 511.101562 246.554688 508.34375 C 245.175781 507.652344 244.484375 507.652344 243.105469 506.964844 C 241.726562 506.273438 241.035156 505.585938 239.65625 504.894531 C 234.828125 500.753906 232.066406 495.238281 232.066406 488.339844 C 232.757812 477.300781 241.726562 467.644531 253.453125 467.644531 Z M 253.453125 467.644531 "/><path style=" stroke:none;fill-rule:nonzero;fill:#006770;fill-opacity:1;" d="M 178.257812 507.652344 C 190.675781 489.027344 182.398438 463.503906 160.324219 455.226562 C 152.046875 452.464844 143.078125 452.464844 135.488281 455.914062 C 121.691406 462.125 114.101562 474.542969 114.101562 488.339844 C 114.101562 495.238281 116.171875 502.136719 119.621094 507.652344 C 109.273438 514.550781 102.375 526.28125 102.375 539.386719 L 102.375 562.84375 C 102.375 566.980469 105.136719 569.742188 109.273438 569.742188 C 113.414062 569.742188 116.171875 566.980469 116.171875 562.84375 L 116.171875 539.386719 C 116.171875 530.417969 121 522.140625 129.28125 517.3125 L 129.96875 518 C 130.660156 518.691406 131.347656 518.691406 132.039062 519.382812 L 134.800781 520.761719 C 135.488281 521.449219 136.867188 521.449219 138.25 522.140625 L 139.628906 522.140625 C 145.835938 524.210938 152.046875 524.210938 158.253906 522.140625 L 159.632812 522.140625 C 161.011719 522.140625 161.703125 521.449219 163.082031 520.761719 C 163.773438 520.761719 165.152344 520.070312 165.84375 519.382812 L 167.910156 518 L 168.601562 517.3125 C 176.878906 521.449219 181.707031 529.730469 181.707031 539.386719 L 181.707031 562.84375 C 181.707031 566.980469 184.46875 569.742188 188.605469 569.742188 C 192.746094 569.742188 195.503906 566.980469 195.503906 562.84375 L 195.503906 539.386719 C 195.503906 526.96875 188.605469 515.242188 178.257812 507.652344 Z M 149.285156 467.644531 C 161.011719 467.644531 170.671875 476.609375 170.671875 488.339844 C 170.671875 494.546875 167.910156 500.753906 163.082031 504.894531 C 157.5625 509.722656 149.285156 511.101562 142.386719 508.34375 C 141.007812 507.652344 140.316406 507.652344 138.9375 506.964844 C 137.558594 506.273438 136.867188 505.585938 135.488281 504.894531 C 130.660156 500.753906 127.898438 495.238281 127.898438 488.339844 C 127.898438 477.300781 137.558594 467.644531 149.285156 467.644531 Z M 149.285156 467.644531 "/><path style=" stroke:none;fill-rule:nonzero;fill:#006770;fill-opacity:1;" d="M 334.855469 379.34375 C 347.273438 360.714844 338.996094 335.191406 316.917969 326.914062 C 308.640625 324.152344 299.671875 324.152344 292.085938 327.601562 C 278.289062 333.8125 270.699219 346.230469 270.699219 360.027344 C 270.699219 366.925781 272.769531 373.824219 276.21875 379.34375 C 265.871094 386.242188 258.972656 397.96875 258.972656 411.074219 L 258.972656 434.53125 C 258.972656 438.667969 261.730469 441.429688 265.871094 441.429688 C 270.007812 441.429688 272.769531 438.667969 272.769531 434.53125 L 272.769531 411.074219 C 272.769531 402.105469 277.597656 393.828125 285.875 389 L 286.566406 389.691406 C 287.253906 390.378906 287.945312 390.378906 288.636719 391.070312 L 292.085938 391.757812 C 292.773438 392.449219 294.152344 392.449219 295.535156 393.140625 L 296.914062 393.140625 C 303.121094 395.207031 309.332031 395.207031 315.539062 393.140625 L 316.917969 393.140625 C 318.300781 393.140625 318.988281 392.449219 320.367188 391.757812 C 321.058594 391.757812 322.4375 391.070312 323.128906 390.378906 L 325.199219 389 L 325.886719 388.308594 C 334.164062 392.449219 338.996094 400.726562 338.996094 410.386719 L 338.996094 433.839844 C 338.996094 437.980469 341.753906 440.738281 345.894531 440.738281 C 350.03125 440.738281 352.792969 437.980469 352.792969 433.839844 L 352.792969 410.386719 C 352.101562 397.96875 345.894531 386.242188 334.855469 379.34375 Z M 305.882812 338.640625 C 317.609375 338.640625 327.265625 347.609375 327.265625 359.335938 C 327.265625 365.546875 324.507812 371.753906 319.679688 375.894531 C 314.160156 380.722656 305.882812 382.101562 298.984375 379.34375 C 297.601562 378.652344 296.914062 378.652344 295.535156 377.960938 C 294.152344 377.273438 293.464844 376.582031 292.085938 375.894531 C 287.253906 371.753906 284.496094 366.234375 284.496094 359.335938 C 284.496094 348.296875 294.152344 338.640625 305.882812 338.640625 Z M 305.882812 338.640625 "/><g clip-rule="nonzero" clip-path="url(#1b528650a1)"><path style=" stroke:none;fill-rule:nonzero;fill:#006770;fill-opacity:1;" d="M 473.515625 431.082031 L 381.765625 431.082031 C 377.625 431.082031 374.867188 428.320312 374.867188 424.183594 C 374.867188 420.042969 377.625 417.285156 381.765625 417.285156 L 473.515625 417.285156 C 477.652344 417.285156 480.414062 414.523438 480.414062 410.386719 L 480.414062 242.75 C 480.414062 238.613281 477.652344 235.851562 473.515625 235.851562 L 138.25 235.851562 C 134.109375 235.851562 131.347656 238.613281 131.347656 242.75 L 131.347656 410.386719 C 131.347656 414.523438 134.109375 417.285156 138.25 417.285156 L 230 417.285156 C 234.136719 417.285156 236.898438 420.042969 236.898438 424.183594 C 236.898438 428.320312 234.136719 431.082031 230 431.082031 L 138.25 431.082031 C 126.519531 431.082031 117.550781 422.113281 117.550781 410.386719 L 117.550781 242.75 C 117.550781 231.023438 126.519531 222.054688 138.25 222.054688 L 474.203125 222.054688 C 485.933594 222.054688 494.898438 231.023438 494.898438 242.75 L 494.898438 410.386719 C 494.210938 422.113281 485.242188 431.082031 473.515625 431.082031 Z M 473.515625 431.082031 "/></g><path style=" stroke:none;fill-rule:nonzero;fill:#006770;fill-opacity:1;" d="M 269.320312 274.484375 L 176.878906 274.484375 C 172.742188 274.484375 169.980469 271.726562 169.980469 267.585938 C 169.980469 263.445312 172.742188 260.6875 176.878906 260.6875 L 268.628906 260.6875 C 272.769531 260.6875 275.527344 263.445312 275.527344 267.585938 C 275.527344 271.726562 272.769531 274.484375 269.320312 274.484375 Z M 269.320312 274.484375 "/><path style=" stroke:none;fill-rule:nonzero;fill:#006770;fill-opacity:1;" d="M 245.863281 320.015625 L 177.570312 320.015625 C 173.429688 320.015625 170.671875 317.253906 170.671875 313.117188 C 170.671875 308.976562 173.429688 306.21875 177.570312 306.21875 L 245.863281 306.21875 C 250.003906 306.21875 252.761719 308.976562 252.761719 313.117188 C 252.761719 317.253906 249.3125 320.015625 245.863281 320.015625 Z M 245.863281 320.015625 "/><path style=" stroke:none;fill-rule:nonzero;fill:#006770;fill-opacity:1;" d="M 230 364.855469 L 176.878906 364.855469 C 172.742188 364.855469 169.980469 362.097656 169.980469 357.957031 C 169.980469 353.816406 172.742188 351.058594 176.878906 351.058594 L 230 351.058594 C 234.136719 351.058594 236.898438 353.816406 236.898438 357.957031 C 236.898438 362.097656 233.449219 364.855469 230 364.855469 Z M 230 364.855469 "/><path style=" stroke:none;fill-rule:nonzero;fill:#006770;fill-opacity:1;" d="M 434.882812 274.484375 L 342.445312 274.484375 C 338.304688 274.484375 335.546875 271.726562 335.546875 267.585938 C 335.546875 263.445312 338.304688 260.6875 342.445312 260.6875 L 434.195312 260.6875 C 438.332031 260.6875 441.09375 263.445312 441.09375 267.585938 C 441.09375 271.726562 438.332031 274.484375 434.882812 274.484375 Z M 434.882812 274.484375 "/><path style=" stroke:none;fill-rule:nonzero;fill:#006770;fill-opacity:1;" d="M 434.882812 320.015625 L 366.589844 320.015625 C 362.449219 320.015625 359.691406 317.253906 359.691406 313.117188 C 359.691406 308.976562 362.449219 306.21875 366.589844 306.21875 L 434.882812 306.21875 C 439.023438 306.21875 441.78125 308.976562 441.78125 313.117188 C 441.78125 317.253906 438.332031 320.015625 434.882812 320.015625 Z M 434.882812 320.015625 "/><path style=" stroke:none;fill-rule:nonzero;fill:#006770;fill-opacity:1;" d="M 434.882812 364.855469 L 381.765625 364.855469 C 377.625 364.855469 374.867188 362.097656 374.867188 357.957031 C 374.867188 353.816406 377.625 351.058594 381.765625 351.058594 L 434.882812 351.058594 C 439.023438 351.058594 441.78125 353.816406 441.78125 357.957031 C 441.78125 362.097656 438.332031 364.855469 434.882812 364.855469 Z M 434.882812 364.855469 "/></g></svg>