<svg xmlns="http://www.w3.org/2000/svg" xmlns:xlink="http://www.w3.org/1999/xlink" width="816" zoomAndPan="magnify" viewBox="0 0 612 791.999994" height="1056" preserveAspectRatio="xMidYMid meet" version="1.2"><g id="2160f1de32"><rect x="0" width="612" y="0" height="791.999994" style="fill:#ffffff;fill-opacity:1;stroke:none;"/><rect x="0" width="612" y="0" height="791.999994" style="fill:#ffffff;fill-opacity:1;stroke:none;"/><path style=" stroke:none;fill-rule:nonzero;fill:#f0cc17;fill-opacity:1;" d="M 240.109375 358.074219 L 237.835938 358.25 L 216.617188 358.488281 L 214.625 358.367188 C 214.601562 364.046875 219.308594 368.648438 224.925781 368.570312 C 229.765625 368.53125 233.640625 369.085938 237.199219 365.445312 C 239.082031 363.515625 240.171875 360.941406 240.109375 358.074219 Z M 247.445312 340.445312 L 206.875 340.917969 C 206.378906 346.671875 211.066406 351.597656 216.800781 351.554688 L 237.898438 351.296875 C 243.53125 351.15625 247.980469 346.234375 247.445312 340.445312 Z M 257.746094 336.273438 C 257.691406 336.328125 257.628906 336.390625 257.566406 336.449219 M 200.808594 331.265625 C 201.851562 332.945312 203.652344 333.992188 205.589844 333.972656 L 248.554688 333.457031 C 251.636719 333.433594 253.953125 330.945312 253.953125 327.882812 L 253.972656 327.882812 C 253.910156 324.898438 251.398438 322.464844 248.414062 322.503906 L 205.472656 323 C 202.488281 323.042969 200.074219 325.449219 200.074219 328.59375 L 200.054688 328.59375 C 200.074219 329.570312 200.355469 330.476562 200.808594 331.265625 Z M 223.621094 408.828125 L 178.824219 408.828125 L 178.824219 467.351562 L 223.621094 467.351562 Z M 257.210938 398.226562 L 235.601562 398.226562 C 232.855469 398.226562 230.601562 400.480469 230.601562 403.207031 L 230.601562 472.957031 C 230.601562 475.683594 232.855469 477.9375 235.601562 477.9375 L 257.210938 477.9375 C 259.957031 477.9375 262.210938 475.683594 262.210938 472.957031 L 262.210938 403.214844 C 262.214844 400.480469 259.957031 398.226562 257.210938 398.226562 Z M 269.171875 417.71875 L 269.171875 463.226562 L 286.292969 466.054688 L 361.777344 464.824219 C 363.277344 464.804688 364.644531 464.492188 365.945312 463.953125 C 367.328125 463.359375 368.554688 462.550781 369.878906 461.464844 L 434.527344 408.125 C 440.496094 403.179688 442.964844 398.457031 442.832031 394.898438 C 442.714844 392.332031 441.214844 390.511719 438.761719 389.683594 C 435 388.378906 429.332031 389.265625 422.824219 393.5625 L 379.050781 422.441406 C 378.382812 422.917969 377.566406 423.132812 376.800781 423.078125 L 325.097656 422.644531 C 320.53125 422.601562 320.59375 415.664062 325.152344 415.703125 L 375.648438 416.125 C 387.039062 404.777344 374.246094 398.246094 362.425781 396.511719 L 321.183594 390.421875 C 317.054688 389.808594 313.511719 391.273438 310.367188 393.957031 L 283.996094 416.414062 C 283.425781 416.910156 282.671875 417.226562 281.863281 417.246094 Z M 334.589844 329.035156 C 323.835938 326.835938 308.828125 322.429688 299.957031 315.390625 C 280.125 338.582031 278.402344 372.269531 295.664062 397.355469 L 305.847656 388.679688 C 310.515625 384.703125 316.050781 382.609375 322.195312 383.519531 L 330.636719 384.765625 C 329.148438 382.4375 328.203125 379.808594 327.949219 376.996094 C 327.769531 375.097656 329.199219 373.398438 331.097656 373.222656 C 333.015625 373.0625 334.695312 374.472656 334.867188 376.390625 C 335.0625 378.566406 336 380.601562 337.441406 382.339844 C 338.941406 384.136719 341 385.625 343.433594 386.671875 L 353.261719 388.113281 C 357.390625 387.714844 361.03125 386.121094 363.636719 383.761719 C 366.128906 381.53125 367.636719 378.601562 367.636719 375.441406 C 367.636719 354.742188 327.878906 371.230469 327.878906 342.917969 C 327.867188 337.4375 330.480469 332.554688 334.589844 329.035156 Z M 400.902344 313.570312 C 393.035156 321.523438 379.964844 326.738281 368.003906 329.152344 C 372.035156 332.652344 374.609375 337.492188 374.609375 342.914062 C 374.609375 347.5 367.628906 347.5 367.628906 342.914062 C 367.628906 340.121094 366.464844 337.535156 364.523438 335.4375 C 362.488281 333.238281 359.601562 331.578125 356.257812 330.75 C 354.046875 330.910156 351.769531 330.988281 349.480469 330.988281 C 348.511719 330.988281 347.347656 330.921875 346 330.804688 C 342.703125 331.675781 339.890625 333.335938 337.894531 335.492188 C 335.976562 337.585938 334.835938 340.15625 334.835938 342.90625 C 334.835938 363.605469 374.609375 347.117188 374.609375 375.425781 C 374.609375 381.375 371.503906 386.636719 366.761719 390.191406 C 374.75 391.875 383.230469 395.730469 386.117188 402.921875 C 386.871094 404.796875 387.183594 406.796875 387.023438 408.835938 L 408.59375 394.601562 C 411.796875 389.4375 414.308594 383.867188 416.007812 377.953125 C 422.585938 355.25 416.753906 330.832031 400.902344 313.570312 Z M 424.523438 254.539062 L 352.917969 216.898438 L 274.925781 254.582031 L 351.671875 286.824219 Z M 274.511719 261.972656 L 265.105469 258.019531 C 262.398438 256.875 262.097656 252.921875 265.144531 251.574219 L 274.242188 247.1875 C 270.210938 223.742188 249.667969 206.445312 225.585938 206.714844 C 198.636719 207.03125 177.050781 229.152344 177.367188 256.082031 C 177.582031 273.816406 187.3125 289.789062 202.59375 298.226562 C 209.253906 301.902344 213.324219 308.390625 213.703125 315.964844 L 215.859375 315.941406 L 215.859375 259.519531 C 215.859375 252.65625 202.851562 252.65625 202.851562 259.519531 C 202.851562 262.167969 205.320312 264.121094 207.933594 264.597656 C 212.417969 265.425781 211.179688 272.269531 206.671875 271.4375 C 193.824219 269.066406 191.769531 252.613281 204.140625 248.289062 C 212.167969 245.480469 222.847656 249.539062 222.847656 259.519531 L 222.847656 315.867188 L 229.507812 315.789062 L 229.507812 259.527344 C 229.507812 243.414062 256.457031 243.414062 256.457031 259.527344 C 256.457031 265.539062 251.628906 270.300781 245.777344 271.425781 C 241.273438 272.296875 239.96875 265.453125 244.472656 264.582031 C 251.550781 263.214844 251.175781 254.398438 242.972656 254.398438 C 239.828125 254.398438 236.488281 255.921875 236.488281 259.519531 L 236.488281 315.707031 L 240.046875 315.648438 C 240.238281 308.074219 244.160156 301.492188 250.722656 297.65625 C 263.675781 290.089844 272.53125 276.976562 274.511719 261.972656 Z M 399.65625 273.160156 L 353.113281 293.796875 C 352.207031 294.195312 351.21875 294.175781 350.34375 293.820312 L 299.300781 272.367188 L 299.300781 302.238281 C 299.300781 308.046875 307.960938 312.699219 312.347656 314.75 C 322.609375 319.578125 340.363281 324.003906 349.472656 324.003906 C 362.382812 324.003906 374.164062 321.136719 383.160156 317.066406 C 389.902344 314.003906 394.980469 310.425781 397.632812 307.023438 C 398.324219 305.878906 399.488281 304.574219 399.625 302.929688 Z M 222.671875 167.570312 C 222.671875 162.980469 229.652344 162.980469 229.652344 167.570312 L 229.652344 179.097656 C 229.652344 183.6875 222.671875 183.6875 222.671875 179.097656 Z M 265.570312 177.082031 C 266.519531 175.402344 268.652344 174.828125 270.3125 175.796875 C 271.972656 176.746094 272.546875 178.859375 271.597656 180.542969 L 265.824219 190.507812 C 263.546875 194.460938 257.535156 191.003906 259.808594 187.046875 Z M 297.996094 206.714844 C 301.949219 204.441406 305.410156 210.453125 301.453125 212.75 L 291.472656 218.503906 C 287.519531 220.777344 284.058594 214.765625 288.015625 212.46875 Z M 180.796875 180.800781 C 178.503906 176.84375 184.535156 173.386719 186.808594 177.339844 L 192.5625 187.328125 C 194.835938 191.28125 188.824219 194.742188 186.550781 190.785156 Z M 151.140625 213.222656 C 149.480469 212.273438 148.910156 210.140625 149.859375 208.480469 C 150.808594 206.820312 152.941406 206.25 154.601562 207.21875 L 164.566406 212.972656 C 168.542969 215.246094 165.0625 221.257812 161.109375 218.984375 Z M 141.65625 256.121094 C 137.054688 256.121094 137.054688 249.140625 141.65625 249.140625 L 153.164062 249.140625 C 157.753906 249.140625 157.753906 256.121094 153.164062 256.121094 Z M 434.6875 285.933594 L 434.6875 266.277344 C 434.6875 262.980469 432.832031 260.445312 429.742188 259.8125 C 425.257812 258.90625 426.660156 252.097656 431.144531 253.011719 C 437.394531 254.273438 441.640625 259.597656 441.640625 266.277344 L 441.640625 286.308594 C 449.808594 289.808594 450.539062 301.925781 442.566406 306.351562 C 434.484375 310.835938 425.132812 302.96875 427.523438 293.636719 C 428.457031 290.046875 431.109375 287.0625 434.6875 285.933594 Z M 434.6875 285.933594 "/></g></svg>