<svg xmlns="http://www.w3.org/2000/svg" xmlns:xlink="http://www.w3.org/1999/xlink" width="816" zoomAndPan="magnify" viewBox="0 0 612 791.999994" height="1056" preserveAspectRatio="xMidYMid meet" version="1.2"><defs><clipPath id="784179567a"><path d="M 148 397 L 463 397 L 463 425.539062 L 148 425.539062 Z M 148 397 "/></clipPath><clipPath id="4b4b933864"><path d="M 263 161.539062 L 349 161.539062 L 349 191 L 263 191 Z M 263 161.539062 "/></clipPath><clipPath id="9f6ac5d5f6"><path d="M 134.609375 197 L 477.359375 197 L 477.359375 310 L 134.609375 310 Z M 134.609375 197 "/></clipPath></defs><g id="1c13b1b62c"><rect x="0" width="612" y="0" height="791.999994" style="fill:#ffffff;fill-opacity:1;stroke:none;"/><rect x="0" width="612" y="0" height="791.999994" style="fill:#ffffff;fill-opacity:1;stroke:none;"/><g clip-rule="nonzero" clip-path="url(#784179567a)"><path style=" stroke:none;fill-rule:nonzero;fill:#f47820;fill-opacity:1;" d="M 148.878906 407.722656 C 148.878906 417.558594 156.878906 425.558594 166.714844 425.558594 L 444.957031 425.558594 C 454.792969 425.558594 462.792969 417.558594 462.792969 407.722656 L 462.792969 397.023438 L 148.878906 397.023438 Z M 148.878906 407.722656 "/></g><path style=" stroke:none;fill-rule:nonzero;fill:#f47820;fill-opacity:1;" d="M 334.375 325.679688 C 334.375 341.414062 321.570312 354.214844 305.835938 354.214844 C 290.101562 354.214844 277.296875 341.414062 277.296875 325.679688 L 277.296875 317.292969 L 148.878906 287.152344 L 148.878906 389.886719 L 462.792969 389.886719 L 462.792969 287.152344 L 334.375 317.292969 Z M 334.375 325.679688 "/><g clip-rule="nonzero" clip-path="url(#4b4b933864)"><path style=" stroke:none;fill-rule:nonzero;fill:#f47820;fill-opacity:1;" d="M 263.027344 161.585938 L 348.644531 161.585938 L 348.644531 190.125 L 263.027344 190.125 Z M 263.027344 161.585938 "/></g><path style=" stroke:none;fill-rule:nonzero;fill:#f47820;fill-opacity:1;" d="M 305.835938 347.082031 C 317.636719 347.082031 327.238281 337.480469 327.238281 325.679688 C 327.238281 319.332031 327.238281 306.988281 327.238281 300.707031 L 284.433594 300.707031 C 284.433594 306.988281 284.433594 319.332031 284.433594 325.679688 C 284.433594 337.480469 294.035156 347.082031 305.835938 347.082031 Z M 305.835938 347.082031 "/><g clip-rule="nonzero" clip-path="url(#9f6ac5d5f6)"><path style=" stroke:none;fill-rule:nonzero;fill:#f47820;fill-opacity:1;" d="M 459.226562 197.257812 C 363.675781 197.257812 265.765625 197.257812 152.445312 197.257812 C 142.609375 197.257812 134.609375 205.257812 134.609375 215.09375 L 134.609375 262.34375 C 134.609375 270.664062 140.265625 277.804688 148.371094 279.707031 L 277.296875 309.964844 L 277.296875 297.140625 C 277.296875 295.171875 278.894531 293.574219 280.867188 293.574219 L 330.808594 293.574219 C 332.777344 293.574219 334.375 295.167969 334.375 297.140625 L 334.375 309.964844 L 463.300781 279.707031 C 471.40625 277.804688 477.0625 270.664062 477.0625 262.34375 L 477.0625 215.09375 C 477.0625 205.257812 469.0625 197.257812 459.226562 197.257812 Z M 459.226562 197.257812 "/></g></g></svg>