<svg xmlns="http://www.w3.org/2000/svg" xmlns:xlink="http://www.w3.org/1999/xlink" width="816" zoomAndPan="magnify" viewBox="0 0 612 791.999994" height="1056" preserveAspectRatio="xMidYMid meet" version="1.2"><defs><clipPath id="534da5b153"><path d="M 121.507812 305.945312 L 306 305.945312 L 306 443 L 121.507812 443 Z M 121.507812 305.945312 "/></clipPath><clipPath id="b2e4b0e341"><path d="M 188 426 L 243 426 L 243 485.945312 L 188 485.945312 Z M 188 426 "/></clipPath><clipPath id="c5840d6b25"><path d="M 308.824219 334.671875 L 482 334.671875 L 482 486 L 308.824219 486 Z M 308.824219 334.671875 "/></clipPath></defs><g id="5ad1a6bcfb"><rect x="0" width="612" y="0" height="791.999994" style="fill:#ffffff;fill-opacity:1;stroke:none;"/><rect x="0" width="612" y="0" height="791.999994" style="fill:#ffffff;fill-opacity:1;stroke:none;"/><path style=" stroke:none;fill-rule:nonzero;fill:#f0cc17;fill-opacity:1;" d="M 190.308594 424.011719 C 190.453125 423.003906 190.597656 421.996094 190.597656 421.132812 C 190.597656 416.527344 189.015625 412.210938 186.421875 408.898438 C 190.308594 412.355469 195.347656 414.65625 200.816406 415.230469 L 201.390625 415.375 C 202.398438 416.097656 203.695312 417.105469 205.132812 418.398438 L 217.65625 444.308594 C 218.089844 445.890625 218.089844 447.1875 218.234375 448.195312 C 218.234375 448.195312 218.234375 447.617188 218.519531 446.753906 L 219.097656 448.195312 L 222.40625 434.085938 C 223.558594 431.351562 224.710938 428.617188 225.859375 426.890625 C 229.460938 431.929688 234.785156 435.816406 241.117188 437.398438 C 240.832031 438.117188 240.6875 439.125 240.398438 439.703125 C 230.179688 454.09375 230.898438 484.320312 230.898438 484.320312 L 204.703125 484.320312 C 204.703125 484.320312 206.285156 453.085938 200.242188 444.738281 L 200.242188 444.59375 C 198.515625 439.558594 196.210938 434.953125 192.898438 430.921875 C 192.035156 428.761719 191.171875 426.316406 190.308594 424.011719 Z M 190.308594 424.011719 "/><path style=" stroke:none;fill-rule:nonzero;fill:#00ac98;fill-opacity:1;" d="M 289.914062 388.027344 C 294.230469 383.277344 297.398438 376.65625 297.398438 369.460938 C 297.398438 355.066406 285.449219 343.410156 271.058594 343.410156 C 267.457031 343.410156 264.003906 344.128906 260.835938 345.425781 C 261.84375 342.546875 262.421875 339.378906 262.421875 336.210938 C 262.421875 320.378906 249.609375 307.425781 233.632812 307.425781 C 222.984375 307.425781 213.769531 313.183594 208.734375 321.820312 C 203.839844 315.773438 196.210938 311.742188 187.71875 311.742188 C 172.894531 311.742188 161.808594 323.546875 160.371094 338.226562 C 151.734375 340.816406 143.097656 349.742188 143.097656 360.539062 C 143.097656 364.28125 143.960938 367.734375 145.546875 370.757812 C 132.734375 372.484375 122.660156 383.421875 122.660156 396.664062 C 122.660156 410.914062 134.460938 422.574219 148.855469 422.574219 C 149.289062 422.574219 150.296875 422.574219 150.296875 422.429688 C 151.734375 432.9375 159.796875 441.285156 170.445312 441.285156 C 179.371094 441.285156 187 435.527344 189.589844 427.324219 C 189.878906 426.316406 190.164062 425.308594 190.308594 424.15625 L 190.308594 424.011719 C 190.453125 423.003906 190.597656 421.996094 190.597656 421.132812 C 190.597656 416.527344 189.015625 412.210938 186.421875 408.898438 C 190.308594 412.355469 195.347656 414.65625 200.816406 415.230469 C 201.679688 415.375 202.398438 415.664062 203.261719 415.664062 L 203.550781 416.816406 C 210.316406 416.816406 216.363281 413.648438 220.96875 409.476562 C 220.96875 410.339844 220.824219 410.484375 220.824219 411.347656 C 220.824219 416.382812 222.261719 421.421875 224.710938 425.453125 L 225.574219 426.027344 L 224.566406 425.453125 C 224.996094 426.171875 225.429688 426.460938 225.859375 427.179688 C 228.597656 431.066406 234.066406 434.519531 239.390625 436.535156 L 241.117188 437.832031 C 241.261719 437.832031 241.40625 437.542969 241.550781 437.542969 L 243.710938 437.972656 L 243.996094 437.972656 C 245.292969 438.261719 246.730469 438.40625 248.171875 438.40625 C 256.519531 438.40625 263.859375 434.664062 268.898438 428.90625 L 269.042969 428.90625 C 272.640625 431.210938 276.957031 432.648438 281.5625 432.648438 C 294.230469 432.648438 304.738281 422.429688 304.738281 409.761719 C 304.59375 399.6875 298.546875 391.339844 289.914062 388.027344 Z M 289.914062 388.027344 "/><g clip-rule="nonzero" clip-path="url(#534da5b153)"><path style=" stroke:none;fill-rule:nonzero;fill:#ffffff;fill-opacity:1;" d="M 170.445312 442.722656 C 159.9375 442.722656 151.160156 435.527344 149.144531 424.011719 L 148.855469 424.011719 C 133.742188 424.011719 121.507812 411.777344 121.507812 396.664062 C 121.507812 383.566406 130.863281 372.339844 143.675781 369.894531 C 142.523438 367.015625 141.949219 363.847656 141.949219 360.679688 C 141.949219 349.308594 150.726562 340.242188 159.363281 337.363281 C 160.945312 321.675781 172.894531 310.304688 187.71875 310.304688 C 195.636719 310.304688 203.261719 313.613281 208.589844 319.371094 C 214.203125 311.023438 223.703125 305.984375 233.777344 305.984375 C 250.472656 305.984375 264.003906 319.515625 264.003906 336.210938 C 264.003906 338.660156 263.714844 340.960938 263.140625 343.121094 C 265.730469 342.402344 268.464844 341.96875 271.199219 341.96875 C 286.457031 341.96875 298.835938 354.347656 298.835938 369.460938 C 298.835938 375.9375 296.53125 382.269531 292.214844 387.597656 C 300.5625 391.628906 305.890625 400.121094 305.890625 409.617188 C 305.890625 423.003906 294.804688 433.945312 281.132812 433.945312 C 276.8125 433.945312 272.640625 432.792969 268.898438 430.632812 C 263.714844 436.535156 256.085938 439.84375 248.171875 439.84375 C 245.867188 439.84375 243.566406 439.558594 241.261719 438.980469 C 241.117188 438.980469 240.832031 438.980469 240.6875 438.835938 C 234.210938 437.109375 228.597656 433.222656 224.710938 427.753906 L 224.421875 427.46875 C 223.988281 426.890625 223.703125 426.460938 223.269531 425.738281 C 220.679688 421.421875 219.382812 416.960938 219.242188 411.921875 C 215.496094 414.800781 209.882812 418.109375 203.261719 418.109375 C 202.542969 418.109375 201.96875 417.824219 201.390625 417.824219 C 201.105469 417.824219 200.816406 417.679688 200.527344 417.679688 C 197.363281 417.390625 194.050781 416.097656 190.742188 413.9375 C 191.605469 416.238281 191.894531 418.542969 191.894531 420.988281 C 191.894531 421.996094 191.75 423.148438 191.605469 424.15625 C 191.460938 425.308594 191.171875 426.460938 190.742188 427.609375 C 188.007812 436.679688 179.800781 442.722656 170.445312 442.722656 Z M 151.734375 422.429688 C 153.175781 432.648438 160.804688 439.84375 170.445312 439.84375 C 178.652344 439.84375 185.703125 434.664062 188.292969 426.890625 C 188.582031 425.882812 188.871094 424.875 189.015625 423.867188 C 189.15625 423.003906 189.15625 421.996094 189.15625 421.132812 C 189.15625 416.960938 187.863281 413.074219 185.273438 409.761719 C 184.839844 409.1875 184.839844 408.324219 185.414062 407.890625 C 185.992188 407.460938 186.855469 407.316406 187.285156 407.890625 C 192.035156 412.066406 196.640625 414.511719 200.960938 414.945312 C 201.25 414.945312 201.679688 415.089844 201.96875 415.089844 C 202.542969 415.230469 202.976562 415.230469 203.40625 415.230469 C 210.890625 415.230469 216.9375 410.625 219.960938 407.890625 C 220.390625 407.460938 221.113281 407.460938 221.542969 407.605469 C 222.117188 407.890625 222.40625 408.46875 222.40625 409.042969 L 222.40625 411.347656 C 222.40625 415.953125 223.558594 420.269531 226.003906 424.300781 C 226.292969 424.875 226.582031 425.308594 227.011719 425.738281 L 227.300781 426.027344 C 230.753906 430.921875 235.9375 434.519531 241.695312 435.957031 L 241.980469 435.957031 C 243.851562 436.679688 246.011719 436.964844 248.171875 436.964844 C 255.65625 436.964844 262.851562 433.65625 267.746094 427.898438 L 267.890625 427.753906 C 268.320312 427.324219 269.1875 427.179688 269.761719 427.609375 C 273.214844 429.914062 277.246094 431.066406 281.421875 431.066406 C 293.511719 431.066406 303.296875 421.421875 303.296875 409.617188 C 303.296875 400.550781 297.972656 392.632812 289.625 389.46875 C 289.046875 389.324219 288.761719 388.75 288.761719 388.171875 C 288.761719 387.886719 288.90625 387.453125 289.191406 387.164062 C 293.796875 382.128906 296.390625 375.792969 296.390625 369.460938 C 296.390625 355.929688 285.304688 344.847656 271.632812 344.847656 C 268.320312 344.847656 264.867188 345.566406 261.988281 346.71875 C 261.414062 347.007812 260.835938 346.863281 260.40625 346.433594 C 259.972656 346 259.828125 345.425781 259.972656 344.847656 C 260.980469 342.113281 261.414062 339.089844 261.414062 336.066406 C 261.414062 320.957031 249.179688 308.722656 234.066406 308.722656 C 224.277344 308.722656 215.210938 313.902344 210.460938 322.394531 C 210.171875 322.828125 209.742188 323.113281 209.308594 323.113281 C 208.878906 323.113281 208.445312 322.96875 208.011719 322.539062 C 202.6875 316.636719 195.492188 313.183594 187.71875 313.183594 C 174.1875 313.183594 163.25 323.832031 161.808594 338.371094 C 161.808594 338.945312 161.378906 339.523438 160.804688 339.667969 C 152.742188 342.113281 144.539062 350.605469 144.539062 360.679688 C 144.539062 363.992188 145.257812 367.300781 146.839844 370.324219 C 146.984375 370.757812 146.984375 371.1875 146.839844 371.621094 C 146.554688 372.050781 146.265625 372.339844 145.691406 372.339844 C 133.457031 373.921875 124.242188 384.285156 124.242188 396.664062 C 124.242188 410.195312 135.183594 421.132812 148.710938 421.132812 L 150.007812 421.132812 C 150.871094 420.847656 151.734375 421.566406 151.734375 422.429688 Z M 151.734375 422.429688 "/></g><path style=" stroke:none;fill-rule:nonzero;fill:#ffffff;fill-opacity:1;" d="M 159.507812 374.5 C 159.363281 374.5 159.074219 374.5 158.933594 374.355469 C 155.765625 372.914062 152.3125 372.195312 148.710938 372.195312 C 147.5625 372.195312 146.695312 372.195312 145.691406 372.339844 C 144.824219 372.484375 144.25 371.90625 144.105469 371.042969 C 143.960938 370.324219 144.539062 369.605469 145.402344 369.460938 C 146.410156 369.316406 147.5625 369.316406 148.710938 369.316406 C 152.742188 369.316406 156.484375 370.179688 160.082031 371.765625 C 160.804688 372.050781 161.089844 372.914062 160.804688 373.636719 C 160.515625 374.210938 160.082031 374.5 159.507812 374.5 Z M 159.507812 374.5 "/><path style=" stroke:none;fill-rule:nonzero;fill:#ffffff;fill-opacity:1;" d="M 150.296875 424.011719 C 149.574219 424.011719 148.855469 423.4375 148.855469 422.71875 C 148.855469 421.851562 149.433594 421.277344 150.152344 421.132812 C 154.757812 420.847656 159.074219 419.261719 162.816406 416.671875 C 163.394531 416.238281 164.402344 416.382812 164.832031 416.960938 C 165.265625 417.679688 165.121094 418.542969 164.546875 418.976562 C 160.371094 421.851562 155.476562 423.582031 150.296875 424.011719 C 150.441406 423.867188 150.296875 424.011719 150.296875 424.011719 Z M 150.296875 424.011719 "/><path style=" stroke:none;fill-rule:nonzero;fill:#ffffff;fill-opacity:1;" d="M 220.824219 410.050781 C 219.960938 409.90625 219.382812 409.332031 219.382812 408.46875 C 219.960938 401.847656 222.984375 395.511719 227.734375 390.761719 C 228.308594 390.1875 229.171875 390.1875 229.746094 390.761719 C 230.324219 391.339844 230.324219 392.203125 229.746094 392.777344 C 225.429688 397.097656 222.839844 402.710938 222.261719 408.753906 C 222.261719 409.476562 221.542969 410.050781 220.824219 410.050781 Z M 220.824219 410.050781 "/><path style=" stroke:none;fill-rule:nonzero;fill:#ffffff;fill-opacity:1;" d="M 186.277344 410.339844 C 185.992188 410.339844 185.558594 410.195312 185.273438 409.90625 L 185.128906 409.761719 C 184.984375 409.617188 184.695312 409.476562 184.550781 409.1875 C 179.082031 404.003906 176.058594 396.953125 176.058594 389.46875 C 176.058594 386.589844 176.492188 383.855469 177.355469 381.265625 C 177.644531 380.542969 178.363281 380.113281 179.226562 380.257812 C 179.945312 380.542969 180.378906 381.265625 180.234375 382.128906 C 179.515625 384.429688 179.082031 387.019531 179.082031 389.46875 C 179.082031 396.234375 181.816406 402.566406 186.710938 407.171875 L 187.285156 407.746094 C 187.863281 408.324219 187.863281 409.1875 187.285156 409.761719 C 187 410.195312 186.710938 410.339844 186.277344 410.339844 Z M 186.277344 410.339844 "/><path style=" stroke:none;fill-rule:nonzero;fill:#ffffff;fill-opacity:1;" d="M 178.652344 342.6875 C 178.363281 342.6875 178.074219 342.546875 177.929688 342.402344 C 172.894531 339.234375 166.703125 338.082031 160.804688 339.667969 C 160.082031 339.8125 159.21875 339.378906 159.074219 338.660156 C 158.933594 337.941406 159.363281 337.074219 160.082031 336.933594 C 166.703125 335.203125 173.757812 336.355469 179.515625 340.097656 C 180.234375 340.53125 180.378906 341.394531 179.945312 342.113281 C 179.515625 342.546875 179.082031 342.6875 178.652344 342.6875 Z M 178.652344 342.6875 "/><path style=" stroke:none;fill-rule:nonzero;fill:#ffffff;fill-opacity:1;" d="M 268.753906 430.34375 C 268.464844 430.34375 268.179688 430.203125 268.035156 430.058594 C 265.585938 428.472656 263.429688 426.460938 261.699219 424.300781 C 261.269531 423.722656 261.414062 422.71875 261.988281 422.285156 C 262.566406 421.851562 263.570312 421.996094 264.003906 422.574219 C 265.585938 424.589844 267.457031 426.316406 269.472656 427.753906 C 270.191406 428.1875 270.335938 429.050781 269.90625 429.769531 C 269.761719 430.058594 269.328125 430.34375 268.753906 430.34375 Z M 268.753906 430.34375 "/><path style=" stroke:none;fill-rule:nonzero;fill:#ffffff;fill-opacity:1;" d="M 289.335938 389.46875 C 289.191406 389.46875 289.046875 389.46875 288.90625 389.324219 C 286.457031 388.460938 283.867188 388.027344 281.421875 388.027344 C 280.554688 388.027344 279.980469 387.453125 279.980469 386.589844 C 279.980469 385.726562 280.554688 385.148438 281.421875 385.148438 C 284.296875 385.148438 287.175781 385.726562 289.914062 386.734375 C 290.632812 387.019531 291.0625 387.886719 290.777344 388.605469 C 290.34375 389.179688 289.914062 389.46875 289.335938 389.46875 Z M 289.335938 389.46875 "/><path style=" stroke:none;fill-rule:nonzero;fill:#ffffff;fill-opacity:1;" d="M 213.195312 330.742188 C 212.621094 330.742188 212.042969 330.453125 211.898438 329.878906 C 210.890625 327.289062 209.453125 324.839844 207.726562 322.683594 C 207.292969 322.105469 207.292969 321.097656 207.871094 320.667969 C 208.445312 320.234375 209.453125 320.234375 209.882812 320.8125 C 211.898438 323.257812 213.339844 325.847656 214.492188 328.726562 C 214.777344 329.449219 214.347656 330.3125 213.625 330.597656 C 213.484375 330.742188 213.339844 330.742188 213.195312 330.742188 Z M 213.195312 330.742188 "/><path style=" stroke:none;fill-rule:nonzero;fill:#ffffff;fill-opacity:1;" d="M 233.632812 366.4375 C 232.769531 366.4375 232.195312 365.863281 232.195312 365 C 232.195312 364.136719 232.769531 363.558594 233.632812 363.558594 C 245.292969 363.558594 255.800781 356.074219 259.542969 344.992188 C 259.828125 344.273438 260.550781 343.839844 261.414062 344.128906 C 262.277344 344.417969 262.566406 345.136719 262.277344 346 C 258.101562 358.089844 246.585938 366.4375 233.632812 366.4375 Z M 233.632812 366.4375 "/><path style=" stroke:none;fill-rule:nonzero;fill:#ffffff;fill-opacity:1;" d="M 188.582031 376.800781 C 188.152344 376.800781 187.71875 376.65625 187.429688 376.226562 C 184.695312 372.484375 183.257812 368.164062 183.257812 363.558594 C 183.257812 351.613281 192.898438 341.96875 204.847656 341.96875 C 207.582031 341.96875 210.171875 342.402344 212.621094 343.410156 C 213.339844 343.695312 213.769531 344.558594 213.484375 345.28125 C 213.195312 346 212.332031 346.433594 211.613281 346.144531 C 209.597656 345.136719 207.292969 344.847656 204.992188 344.847656 C 194.628906 344.847656 186.277344 353.195312 186.277344 363.558594 C 186.277344 367.589844 187.574219 371.332031 189.878906 374.644531 C 190.308594 375.21875 190.164062 376.226562 189.589844 376.65625 C 189.15625 376.800781 188.871094 376.800781 188.582031 376.800781 Z M 188.582031 376.800781 "/><g clip-rule="nonzero" clip-path="url(#b2e4b0e341)"><path style=" stroke:none;fill-rule:nonzero;fill:#ffffff;fill-opacity:1;" d="M 230.898438 485.902344 L 204.703125 485.902344 C 203.839844 485.902344 203.261719 485.328125 203.261719 484.464844 C 203.261719 467.769531 202.542969 456.109375 198.945312 445.457031 C 198.945312 445.316406 198.800781 445.171875 198.800781 445.027344 L 198.800781 444.882812 C 197.074219 439.84375 194.769531 435.671875 191.75 431.929688 C 190.886719 430.777344 189.734375 429.625 188.582031 428.472656 C 188.007812 427.898438 188.007812 427.035156 188.582031 426.460938 C 189.15625 425.882812 190.023438 425.882812 190.597656 426.460938 C 191.894531 427.753906 193.042969 428.90625 194.050781 430.203125 C 197.21875 434.230469 199.808594 438.835938 201.679688 444.164062 C 201.679688 444.308594 201.824219 444.449219 201.824219 444.59375 L 201.824219 444.738281 C 205.421875 455.390625 206.285156 466.90625 206.285156 483.027344 L 229.460938 483.027344 C 229.460938 476.691406 230.035156 451.9375 239.246094 438.980469 C 239.390625 438.835938 239.535156 438.550781 239.679688 438.40625 C 239.96875 438.117188 240.109375 437.6875 240.398438 437.398438 C 240.832031 436.824219 241.839844 436.679688 242.414062 437.109375 C 242.988281 437.542969 243.132812 438.550781 242.703125 439.125 C 242.558594 439.269531 242.414062 439.558594 242.269531 439.84375 C 242.125 440.132812 241.980469 440.277344 241.839844 440.566406 C 231.90625 454.382812 232.625 484.03125 232.625 484.320312 C 232.625 484.753906 232.480469 485.039062 232.195312 485.328125 C 231.617188 485.761719 231.332031 485.902344 230.898438 485.902344 Z M 230.898438 485.902344 "/></g><path style=" stroke:none;fill-rule:nonzero;fill:#ffffff;fill-opacity:1;" d="M 218.089844 449.777344 C 217.367188 449.777344 216.792969 449.199219 216.648438 448.480469 C 216.648438 448.195312 216.648438 447.90625 216.503906 447.617188 C 216.363281 446.753906 216.363281 445.890625 216.074219 444.738281 C 213.914062 436.964844 209.308594 425.453125 203.984375 419.40625 C 202.832031 418.398438 201.390625 417.96875 200.242188 417.535156 C 199.519531 417.246094 199.089844 416.527344 199.234375 415.808594 C 199.519531 415.089844 200.242188 414.65625 200.960938 414.800781 C 202.257812 415.230469 204.269531 415.953125 206 417.246094 L 206.285156 417.535156 C 211.46875 423.4375 215.929688 433.945312 218.375 441.859375 C 219.097656 439.414062 220.105469 436.390625 221.113281 433.511719 C 222.117188 430.777344 223.414062 428.472656 224.710938 426.316406 C 225.140625 425.59375 226.003906 425.453125 226.726562 425.882812 C 227.445312 426.316406 227.589844 427.179688 227.15625 427.898438 C 225.859375 429.769531 224.855469 431.929688 223.847656 434.519531 C 221.832031 439.558594 220.390625 445.316406 219.816406 447.042969 C 219.671875 447.761719 219.671875 448.050781 219.671875 448.050781 C 219.527344 449.058594 218.953125 449.777344 218.089844 449.777344 C 218.234375 449.777344 218.234375 449.777344 218.089844 449.777344 Z M 218.089844 449.777344 "/><g clip-rule="nonzero" clip-path="url(#c5840d6b25)"><path style=" stroke:none;fill-rule:nonzero;fill:#00ac98;fill-opacity:1;" d="M 462.757812 360.5625 L 445.019531 360.5625 C 443.109375 357.371094 439.679688 355.1875 435.734375 355.046875 L 435.734375 354.777344 C 435.734375 343.691406 426.714844 334.671875 415.628906 334.671875 L 375.265625 334.671875 C 364.179688 334.671875 355.160156 343.691406 355.160156 354.777344 L 355.160156 355.046875 C 351.214844 355.1875 347.789062 357.371094 345.875 360.5625 L 328.140625 360.5625 C 317.535156 360.5625 308.90625 369.1875 308.90625 379.792969 L 308.90625 397.886719 C 308.90625 404.417969 310.34375 410.507812 313.179688 416.015625 L 313.179688 464.554688 C 313.179688 476.289062 322.726562 485.835938 334.460938 485.835938 L 456.4375 485.835938 C 468.171875 485.835938 477.714844 476.289062 477.714844 464.554688 L 477.714844 416.015625 C 480.550781 410.511719 481.988281 404.417969 481.988281 397.886719 L 481.988281 379.792969 C 481.988281 369.1875 473.359375 360.5625 462.757812 360.5625 Z M 366.699219 359.167969 L 366.699219 354.777344 C 366.699219 350.054688 370.542969 346.210938 375.265625 346.210938 L 415.628906 346.210938 C 420.355469 346.210938 424.195312 350.054688 424.195312 354.777344 L 424.195312 359.167969 C 424.195312 359.644531 424.25 360.109375 424.335938 360.5625 L 366.558594 360.5625 C 366.644531 360.109375 366.699219 359.644531 366.699219 359.167969 Z M 320.445312 379.792969 C 320.445312 375.550781 323.898438 372.101562 328.140625 372.101562 L 462.757812 372.101562 C 467 372.101562 470.449219 375.550781 470.449219 379.792969 L 470.449219 397.886719 C 470.449219 402.949219 469.265625 407.597656 466.929688 411.707031 L 466.644531 412.210938 C 461.042969 420.535156 450.898438 425.65625 438.253906 425.65625 L 413.285156 425.65625 L 413.285156 424.363281 C 413.285156 419.882812 409.640625 416.238281 405.160156 416.238281 L 385.734375 416.238281 C 381.253906 416.238281 377.609375 419.882812 377.609375 424.363281 L 377.609375 425.65625 L 352.640625 425.65625 C 339.996094 425.65625 329.851562 420.535156 324.25 412.210938 L 323.964844 411.707031 C 321.628906 407.597656 320.445312 402.949219 320.445312 397.886719 Z M 403.671875 425.851562 L 403.671875 445.480469 L 387.226562 445.480469 L 387.226562 425.851562 Z M 456.4375 474.296875 L 334.460938 474.296875 C 329.089844 474.296875 324.71875 469.925781 324.71875 464.554688 L 324.71875 426.476562 C 332.054688 432.035156 341.675781 435.269531 352.640625 435.269531 L 377.609375 435.269531 L 377.609375 446.972656 C 377.609375 451.453125 381.253906 455.097656 385.734375 455.097656 L 405.164062 455.097656 C 409.640625 455.097656 413.285156 451.453125 413.285156 446.972656 L 413.285156 435.269531 L 438.257812 435.269531 C 449.21875 435.269531 458.84375 432.035156 466.179688 426.476562 L 466.179688 464.554688 C 466.179688 469.925781 461.808594 474.296875 456.4375 474.296875 Z M 456.4375 474.296875 "/></g></g></svg>