<svg xmlns="http://www.w3.org/2000/svg" xmlns:xlink="http://www.w3.org/1999/xlink" width="816" zoomAndPan="magnify" viewBox="0 0 612 791.999994" height="1056" preserveAspectRatio="xMidYMid meet" version="1.2"><defs><clipPath id="3e54819c13"><path d="M 144.222656 158 L 491.472656 158 L 491.472656 482.734375 L 144.222656 482.734375 Z M 144.222656 158 "/></clipPath></defs><g id="d54f76e26b"><rect x="0" width="612" y="0" height="791.999994" style="fill:#ffffff;fill-opacity:1;stroke:none;"/><rect x="0" width="612" y="0" height="791.999994" style="fill:#ffffff;fill-opacity:1;stroke:none;"/><g clip-rule="nonzero" clip-path="url(#3e54819c13)"><path style=" stroke:none;fill-rule:evenodd;fill:#006770;fill-opacity:1;" d="M 144.351562 478.625 C 152.078125 425.292969 197.964844 384.316406 253.421875 384.316406 C 308.902344 384.316406 354.792969 425.292969 362.5 478.625 C 362.640625 479.644531 362.332031 480.671875 361.65625 481.449219 C 360.980469 482.222656 360.003906 482.667969 358.976562 482.667969 C 331.777344 482.667969 175.074219 482.667969 147.867188 482.660156 C 146.839844 482.660156 145.863281 482.214844 145.191406 481.441406 C 144.515625 480.667969 144.210938 479.640625 144.351562 478.625 Z M 309.125 312.597656 C 309.140625 313.179688 309.152344 313.765625 309.152344 314.355469 C 309.152344 319.34375 308.488281 324.183594 307.25 328.789062 C 243.191406 305.703125 245.402344 260.703125 245.402344 260.703125 C 245.433594 260.191406 245.398438 259.695312 245.304688 259.214844 C 247.953125 258.828125 250.664062 258.625 253.421875 258.625 C 254.703125 258.625 255.980469 258.667969 257.242188 258.753906 C 257.152344 259.476562 257.207031 260.230469 257.414062 260.976562 C 263 280.8125 275.980469 303.75 306.101562 312.550781 C 307.121094 312.847656 308.160156 312.847656 309.125 312.597656 Z M 269.289062 260.929688 C 288.128906 266.546875 302.835938 281.890625 307.550781 301.085938 C 284.847656 293.765625 274.308594 276.546875 269.289062 260.929688 Z M 234.003906 262.125 C 234.167969 272.320312 238.722656 316.101562 303.175781 339.421875 C 293.976562 357.585938 275.121094 370.085938 253.421875 370.085938 C 222.734375 370.085938 197.71875 345.042969 197.71875 314.355469 C 197.71875 290.492188 212.847656 270.039062 234.003906 262.125 Z M 347.019531 158.050781 L 390.882812 158.050781 C 394.035156 158.050781 396.605469 160.621094 396.605469 163.777344 L 396.605469 207.640625 C 396.605469 210.792969 394.035156 213.363281 390.882812 213.363281 L 347.019531 213.363281 C 343.863281 213.363281 341.292969 210.792969 341.292969 207.640625 L 341.292969 163.777344 C 341.292969 160.621094 343.863281 158.050781 347.019531 158.050781 Z M 353.25 188.605469 L 362.871094 198.226562 C 364.011719 199.367188 365.582031 199.972656 367.195312 199.886719 C 368.804688 199.800781 370.304688 199.039062 371.320312 197.78125 L 385.050781 180.820312 C 387.027344 178.378906 386.648438 174.792969 384.207031 172.816406 C 381.765625 170.839844 378.175781 171.21875 376.199219 173.660156 L 366.449219 185.707031 C 366.449219 185.707031 361.300781 180.558594 361.300781 180.558594 C 359.078125 178.335938 355.472656 178.335938 353.25 180.558594 C 351.03125 182.777344 351.03125 186.386719 353.25 188.605469 Z M 347.019531 244.347656 L 390.882812 244.347656 C 394.035156 244.347656 396.605469 246.917969 396.605469 250.070312 L 396.605469 293.933594 C 396.605469 297.089844 394.035156 299.660156 390.882812 299.660156 L 347.019531 299.660156 C 343.863281 299.660156 341.292969 297.089844 341.292969 293.933594 L 341.292969 250.070312 C 341.292969 246.917969 343.863281 244.347656 347.019531 244.347656 Z M 347.019531 330.640625 L 390.882812 330.640625 C 394.035156 330.640625 396.605469 333.210938 396.605469 336.367188 L 396.605469 380.230469 C 396.605469 383.382812 394.035156 385.953125 390.882812 385.953125 L 347.019531 385.953125 C 343.863281 385.953125 341.292969 383.382812 341.292969 380.230469 L 341.292969 336.367188 C 341.292969 333.210938 343.863281 330.640625 347.019531 330.640625 Z M 416.222656 179.710938 C 413.082031 179.710938 410.53125 177.160156 410.53125 174.019531 C 410.53125 170.878906 413.082031 168.328125 416.222656 168.328125 L 457.363281 168.328125 C 460.503906 168.328125 463.054688 170.878906 463.054688 174.019531 C 463.054688 177.160156 460.503906 179.710938 457.363281 179.710938 Z M 416.222656 203.089844 C 413.082031 203.089844 410.53125 200.539062 410.53125 197.394531 C 410.53125 194.253906 413.082031 191.703125 416.222656 191.703125 L 485.363281 191.703125 C 488.503906 191.703125 491.054688 194.253906 491.054688 197.394531 C 491.054688 200.539062 488.503906 203.089844 485.363281 203.089844 Z M 416.222656 266.007812 C 413.082031 266.007812 410.53125 263.457031 410.53125 260.316406 C 410.53125 257.175781 413.082031 254.625 416.222656 254.625 L 457.363281 254.625 C 460.503906 254.625 463.054688 257.175781 463.054688 260.316406 C 463.054688 263.457031 460.503906 266.007812 457.363281 266.007812 Z M 416.222656 289.382812 C 413.082031 289.382812 410.53125 286.832031 410.53125 283.691406 C 410.53125 280.550781 413.082031 278 416.222656 278 L 485.363281 278 C 488.503906 278 491.054688 280.550781 491.054688 283.691406 C 491.054688 286.832031 488.503906 289.382812 485.363281 289.382812 Z M 416.222656 352.300781 C 413.082031 352.300781 410.53125 349.75 410.53125 346.609375 C 410.53125 343.46875 413.082031 340.917969 416.222656 340.917969 L 457.363281 340.917969 C 460.503906 340.917969 463.054688 343.46875 463.054688 346.609375 C 463.054688 349.75 460.503906 352.300781 457.363281 352.300781 Z M 416.222656 375.675781 C 413.082031 375.675781 410.53125 373.125 410.53125 369.984375 C 410.53125 366.84375 413.082031 364.292969 416.222656 364.292969 L 485.363281 364.292969 C 488.503906 364.292969 491.054688 366.84375 491.054688 369.984375 C 491.054688 373.125 488.503906 375.675781 485.363281 375.675781 Z M 416.222656 375.675781 "/></g></g></svg>