<svg xmlns="http://www.w3.org/2000/svg" xmlns:xlink="http://www.w3.org/1999/xlink" width="816" zoomAndPan="magnify" viewBox="0 0 612 791.999994" height="1056" preserveAspectRatio="xMidYMid meet" version="1.2"><defs><clipPath id="101971f40e"><path d="M 136.605469 195.117188 L 475.605469 195.117188 L 475.605469 511.617188 L 136.605469 511.617188 Z M 136.605469 195.117188 "/></clipPath><clipPath id="53f52a1c72"><path d="M 295 296.691406 L 317 296.691406 L 317 344 L 295 344 Z M 295 296.691406 "/></clipPath><clipPath id="9e15cc5914"><path d="M 265.777344 336 L 346 336 L 346 353.691406 L 265.777344 353.691406 Z M 265.777344 336 "/></clipPath><clipPath id="08b2601b3e"><path d="M 188 347.546875 L 207 347.546875 L 207 388 L 188 388 Z M 188 347.546875 "/></clipPath><clipPath id="65282ad9be"><path d="M 163.394531 381 L 231.644531 381 L 231.644531 396 L 163.394531 396 Z M 163.394531 381 "/></clipPath><clipPath id="c00b8820ae"><path d="M 405 347.546875 L 424 347.546875 L 424 388 L 405 388 Z M 405 347.546875 "/></clipPath><clipPath id="f18db01edf"><path d="M 380 381 L 448.222656 381 L 448.222656 396 L 380 396 Z M 380 381 "/></clipPath></defs><g id="5ac77df105"><rect x="0" width="612" y="0" height="791.999994" style="fill:#ffffff;fill-opacity:1;stroke:none;"/><rect x="0" width="612" y="0" height="791.999994" style="fill:#ffffff;fill-opacity:1;stroke:none;"/><g clip-rule="nonzero" clip-path="url(#101971f40e)"><path style=" stroke:none;fill-rule:nonzero;fill:#006770;fill-opacity:1;" d="M 421.839844 425.625 L 423.03125 429.804688 C 417.789062 432.859375 411.222656 432.859375 406.046875 429.804688 L 407.242188 425.625 C 412.019531 426.6875 416.996094 426.753906 421.839844 425.625 Z M 296.167969 402.867188 L 294.308594 409.503906 C 301.410156 414.015625 310.566406 413.882812 317.53125 409.503906 C 317.132812 408.109375 316.074219 404.195312 315.675781 402.867188 C 309.238281 404.328125 302.539062 404.394531 296.167969 402.867188 Z M 189.871094 425.625 L 188.742188 429.804688 C 193.984375 432.859375 200.554688 432.859375 205.730469 429.804688 L 204.601562 425.625 C 199.691406 426.6875 194.714844 426.6875 189.871094 425.625 Z M 188.542969 417.597656 C 207.785156 424.496094 227.625 405.917969 222.183594 386.277344 C 213.757812 357.414062 171.757812 362.921875 171.226562 393.113281 C 171.226562 404.128906 178.191406 413.949219 188.542969 417.597656 Z M 177.464844 349.386719 L 207.453125 352.507812 C 208.980469 352.703125 210.242188 353.699219 210.640625 355.226562 C 211.4375 358.011719 212.496094 361 213.824219 364.316406 C 235.058594 376.195312 235.652344 408.90625 214.753906 421.511719 C 214.753906 421.644531 220.0625 426.886719 220.0625 426.886719 C 224.773438 427.75 229.417969 429.339844 233.597656 431.664062 L 254.5 414.546875 C 255.425781 413.75 256.621094 413.484375 257.816406 413.816406 C 266.574219 408.574219 277.257812 404.59375 287.542969 405.917969 L 289.066406 400.480469 C 277.921875 395.371094 268.765625 384.089844 266.242188 372.144531 C 266.175781 372.078125 266.175781 372.011719 266.175781 372.011719 C 224.707031 335.785156 250.582031 266.511719 305.722656 266.511719 C 361.058594 266.511719 387.070312 335.71875 345.335938 372.011719 C 342.746094 384.488281 333.988281 395.238281 322.441406 400.476562 L 322.574219 400.941406 L 323.96875 405.917969 C 334.253906 404.59375 344.871094 408.507812 353.628906 413.816406 C 354.757812 413.550781 356.015625 413.75 356.945312 414.546875 L 377.914062 431.597656 C 382.160156 429.273438 386.804688 427.683594 391.582031 426.886719 L 396.890625 421.578125 C 375.855469 408.972656 376.253906 376.328125 397.6875 364.382812 C 398.945312 361.265625 400.074219 358.210938 401.003906 355.160156 C 401.46875 353.699219 402.730469 352.703125 404.1875 352.570312 L 434.046875 349.453125 C 435.839844 349.320312 437.296875 347.730469 437.296875 346.003906 L 437.296875 307.453125 C 437.296875 305.59375 435.90625 304.070312 433.980469 303.804688 L 404.1875 300.683594 C 402.730469 300.550781 401.46875 299.558594 401.003906 298.097656 C 399.078125 291.59375 396.425781 285.359375 393.242188 279.453125 C 392.511719 278.191406 392.710938 276.53125 393.640625 275.40625 L 412.617188 252.179688 C 413.742188 250.789062 413.609375 248.664062 412.351562 247.402344 L 385.277344 220 C 383.953125 218.671875 381.894531 218.539062 380.5 219.734375 L 357.078125 238.644531 C 355.882812 239.574219 354.292969 239.707031 353.03125 239.042969 C 347.058594 235.859375 340.824219 233.269531 334.453125 231.347656 C 332.992188 230.882812 331.996094 229.6875 331.796875 228.160156 L 328.746094 198.238281 C 328.546875 196.445312 327.019531 195.117188 325.097656 195.117188 L 286.613281 195.117188 C 284.753906 195.117188 283.230469 196.445312 282.964844 198.304688 L 279.910156 228.226562 C 279.710938 229.753906 278.714844 230.949219 277.257812 231.414062 C 270.886719 233.269531 264.648438 235.859375 258.679688 239.109375 C 257.351562 239.839844 255.757812 239.640625 254.566406 238.710938 L 231.339844 219.800781 C 229.882812 218.605469 227.824219 218.671875 226.5625 220 L 199.226562 247.269531 C 197.964844 248.53125 197.832031 250.65625 198.960938 252.113281 L 217.9375 275.339844 C 218.867188 276.464844 219.066406 278.125 218.335938 279.386719 C 215.152344 285.359375 212.5625 291.660156 210.640625 297.964844 C 210.242188 299.425781 208.980469 300.417969 207.453125 300.550781 L 177.53125 303.671875 C 175.671875 303.871094 174.277344 305.394531 174.277344 307.253906 L 174.277344 345.804688 C 174.277344 347.664062 175.738281 349.1875 177.464844 349.386719 Z M 339.03125 363.453125 C 339.03125 345.207031 324.167969 330.277344 305.855469 330.277344 C 269.824219 330.742188 260.070312 379.644531 293.046875 394.042969 C 314.082031 403.132812 339.429688 386.34375 339.03125 363.453125 Z M 440.484375 393.113281 C 440.949219 374.070312 418.984375 360.933594 402.464844 370.15625 C 382.625 380.242188 384.945312 410.363281 405.847656 417.597656 C 422.105469 423.835938 440.949219 410.5625 440.484375 393.113281 Z M 475.054688 511.617188 L 465.300781 462.320312 C 462.3125 446.394531 447.648438 433.855469 431.460938 433.65625 C 431.460938 433.65625 426.085938 436.640625 426.085938 436.574219 C 419.183594 440.554688 410.757812 440.089844 403.722656 436.707031 C 402.199219 436.109375 398.945312 433.589844 397.554688 433.65625 C 389.523438 433.855469 381.695312 436.972656 375.523438 442.148438 C 376.253906 442.480469 388.992188 508.832031 389.65625 511.617188 L 437.363281 511.617188 L 437.363281 491.25 C 437.363281 489.191406 439.023438 487.53125 441.082031 487.53125 C 443.136719 487.53125 444.796875 489.191406 444.796875 491.25 L 444.796875 511.617188 Z M 326.621094 412.820312 C 311.761719 422.707031 300.015625 422.640625 285.085938 412.820312 C 264.449219 413.152344 245.671875 428.945312 241.890625 449.179688 L 229.550781 511.550781 L 265.378906 511.550781 L 265.378906 491.183594 C 265.378906 489.125 267.039062 487.464844 269.09375 487.464844 C 271.152344 487.464844 272.8125 489.125 272.8125 491.183594 L 272.8125 511.550781 L 339.03125 511.550781 L 339.03125 491.183594 C 339.03125 489.125 340.691406 487.464844 342.746094 487.464844 C 344.804688 487.464844 346.460938 489.125 346.460938 491.183594 L 346.460938 511.550781 L 382.292969 511.550781 C 382.292969 511.550781 369.949219 449.179688 369.949219 449.179688 C 366.101562 429.078125 347.257812 413.085938 326.621094 412.820312 Z M 236.117188 442.148438 C 230.015625 437.039062 221.984375 433.855469 214.089844 433.65625 C 202.34375 441.484375 191.996094 441.417969 180.25 433.65625 C 164.058594 433.921875 149.394531 446.394531 146.410156 462.320312 L 136.65625 511.617188 L 163.859375 511.617188 L 163.859375 491.25 C 163.859375 489.191406 165.519531 487.53125 167.578125 487.53125 C 169.632812 487.53125 171.292969 489.191406 171.292969 491.25 L 171.292969 511.617188 L 222.050781 511.617188 C 222.316406 510.226562 235.851562 440.488281 236.117188 442.148438 Z M 236.117188 442.148438 "/></g><path style=" stroke:none;fill-rule:evenodd;fill:#006770;fill-opacity:1;" d="M 303.457031 299.648438 C 298.847656 300.511719 287.507812 303.820312 277.15625 316.199219 C 270.035156 324.714844 271.535156 339.929688 271.535156 339.929688 C 271.535156 339.929688 278.75 343.148438 286.457031 344.296875 C 292.886719 345.257812 302.683594 344.027344 305.789062 343.589844 C 308.914062 343.851562 318.761719 344.511719 325.125 343.1875 C 332.753906 341.597656 339.773438 337.972656 339.773438 337.972656 C 339.773438 337.972656 340.398438 322.699219 332.800781 314.601562 C 321.757812 302.835938 310.246094 300.1875 305.59375 299.585938 C 304.878906 299.515625 304.167969 299.535156 303.457031 299.648438 Z M 303.457031 299.648438 "/><path style=" stroke:none;fill-rule:evenodd;fill:#ffffff;fill-opacity:1;" d="M 299.070312 300.789062 C 297.707031 301.234375 296.375 301.75 295.066406 302.335938 C 295.5 303.667969 295.832031 304.875 295.894531 305.609375 C 296.101562 308.070312 293.757812 340.800781 293.355469 341.152344 C 292.957031 341.507812 287.34375 341.820312 286.375 341.4375 C 285.519531 341.101562 274.359375 337.066406 271.40625 335.996094 C 271.382812 338.378906 271.535156 339.929688 271.535156 339.929688 C 271.535156 339.929688 278.75 343.148438 286.457031 344.296875 C 289.65625 344.773438 293.6875 344.710938 297.3125 344.472656 C 297.347656 344.152344 297.386719 343.78125 297.421875 343.324219 L 295.3125 343.402344 C 295.3125 343.402344 297.71875 311.355469 299.070312 300.789062 Z M 310.351562 300.558594 C 312.097656 311.144531 316.507812 342.601562 316.507812 342.601562 L 314.445312 342.679688 C 314.515625 343.207031 314.582031 343.632812 314.644531 343.984375 C 318.1875 344 322.058594 343.828125 325.125 343.1875 C 332.753906 341.597656 339.773438 337.972656 339.773438 337.972656 C 339.773438 337.972656 339.835938 336.476562 339.6875 334.171875 C 336.445312 335.558594 326.203125 339.941406 325.390625 340.320312 C 324.445312 340.757812 318.820312 340.765625 318.402344 340.433594 C 317.980469 340.105469 313.765625 307.5625 313.832031 305.09375 C 313.851562 304.382812 314.097656 303.210938 314.433594 301.910156 C 313.097656 301.390625 311.738281 300.941406 310.351562 300.558594 Z M 317.472656 303.222656 C 318.152344 307.691406 320.078125 324.507812 320.585938 324.683594 C 321.015625 324.828125 321.300781 311.90625 321.351562 305.300781 C 320.019531 304.503906 318.722656 303.816406 317.472656 303.222656 Z M 291.742188 303.992188 C 290.53125 304.660156 289.277344 305.421875 287.996094 306.292969 C 288.425781 312.898438 289.449219 325.734375 289.867188 325.5625 C 290.363281 325.363281 291.320312 308.539062 291.746094 303.992188 Z M 282.808594 310.347656 C 281.636719 311.394531 280.464844 312.539062 279.289062 313.789062 C 279.964844 318.296875 280.984375 325.664062 281.40625 325.808594 C 281.929688 325.988281 282.8125 313.203125 282.808594 310.347656 Z M 326.917969 309.164062 C 327.109375 312.1875 328.695312 324.644531 329.203125 324.4375 C 329.613281 324.269531 330.203125 316.945312 330.617188 312.398438 C 329.382812 311.214844 328.144531 310.144531 326.917969 309.164062 Z M 326.917969 309.164062 "/><g clip-rule="nonzero" clip-path="url(#53f52a1c72)"><path style=" stroke:none;fill-rule:evenodd;fill:#006770;fill-opacity:1;" d="M 295.3125 343.402344 C 295.3125 343.402344 298.746094 297.667969 299.710938 297.445312 C 300.671875 297.222656 309.183594 296.6875 309.679688 297.0625 C 310.175781 297.433594 316.507812 342.601562 316.507812 342.601562 Z M 295.3125 343.402344 "/></g><path style=" stroke:none;fill-rule:evenodd;fill:#ffffff;fill-opacity:1;" d="M 292.214844 344.269531 C 294.351562 344.824219 318.988281 343.773438 319.1875 343.496094 C 319.382812 343.214844 319.445312 340.542969 319.171875 340.550781 C 318.898438 340.558594 293.433594 341.355469 293.433594 341.355469 Z M 292.214844 344.269531 "/><g clip-rule="nonzero" clip-path="url(#9e15cc5914)"><path style=" stroke:none;fill-rule:evenodd;fill:#006770;fill-opacity:1;" d="M 271.617188 338.078125 C 271.074219 338.230469 265.9375 340.636719 265.886719 341.324219 C 265.839844 342.011719 265.835938 349.070312 266.128906 349.675781 C 266.417969 350.285156 270.949219 348.167969 272.1875 348.339844 C 273.425781 348.507812 283.0625 352.480469 285.609375 352.953125 C 287.78125 353.359375 301.476562 352.835938 306.042969 352.488281 C 310.621094 352.574219 324.324219 352.3125 326.46875 351.78125 C 328.984375 351.164062 338.378906 346.644531 339.605469 346.402344 C 340.832031 346.164062 345.476562 348.015625 345.730469 347.394531 C 345.988281 346.769531 345.582031 339.722656 345.492188 339.039062 C 345.402344 338.359375 340.136719 336.25 339.585938 336.128906 C 339.03125 336.007812 327.203125 341.550781 324.679688 341.96875 C 317.136719 342.566406 299.6875 342.683594 286.832031 343.054688 C 284.292969 342.785156 272.160156 337.925781 271.617188 338.078125 Z M 271.617188 338.078125 "/></g><path style=" stroke:none;fill-rule:evenodd;fill:#006770;fill-opacity:1;" d="M 329.082031 324.507812 C 329.082031 324.507812 328.964844 308.667969 328.558594 308.003906 C 328.152344 307.335938 321.484375 302.875 320.515625 302.855469 C 319.546875 302.835938 320.6875 324.609375 320.6875 324.609375 Z M 329.082031 324.507812 "/><path style=" stroke:none;fill-rule:evenodd;fill:#006770;fill-opacity:1;" d="M 281.4375 325.875 C 281.4375 325.875 280.644531 310.054688 281.011719 309.367188 C 281.378906 308.675781 287.78125 303.84375 288.75 303.765625 C 289.714844 303.691406 289.824219 325.496094 289.824219 325.496094 Z M 281.4375 325.875 "/><path style=" stroke:none;fill-rule:evenodd;fill:#006770;fill-opacity:1;" d="M 195.4375 350.0625 C 191.515625 350.796875 181.871094 353.609375 173.070312 364.140625 C 167.011719 371.382812 168.289062 384.324219 168.289062 384.324219 C 168.289062 384.324219 174.425781 387.058594 180.980469 388.039062 C 186.449219 388.851562 194.78125 387.808594 197.421875 387.4375 C 200.078125 387.65625 208.457031 388.222656 213.867188 387.09375 C 220.355469 385.742188 226.328125 382.65625 226.328125 382.65625 C 226.328125 382.65625 226.855469 369.667969 220.394531 362.78125 C 211.003906 352.773438 201.214844 350.519531 197.257812 350.011719 C 196.648438 349.953125 196.042969 349.96875 195.4375 350.0625 Z M 195.4375 350.0625 "/><path style=" stroke:none;fill-rule:evenodd;fill:#ffffff;fill-opacity:1;" d="M 191.707031 351.035156 C 190.550781 351.414062 189.414062 351.851562 188.304688 352.351562 C 188.671875 353.480469 188.953125 354.507812 189.003906 355.132812 C 189.183594 357.226562 187.1875 385.0625 186.847656 385.363281 C 186.507812 385.664062 181.734375 385.933594 180.910156 385.605469 C 180.179688 385.320312 170.6875 381.886719 168.179688 380.980469 C 168.160156 383.003906 168.289062 384.324219 168.289062 384.324219 C 168.289062 384.324219 174.425781 387.058594 180.980469 388.039062 C 183.699219 388.445312 187.128906 388.390625 190.210938 388.1875 C 190.242188 387.914062 190.273438 387.601562 190.304688 387.210938 L 188.511719 387.277344 C 188.511719 387.277344 190.558594 360.019531 191.707031 351.035156 Z M 201.304688 350.839844 C 202.785156 359.839844 206.539062 386.59375 206.539062 386.59375 L 204.785156 386.660156 C 204.84375 387.113281 204.902344 387.472656 204.953125 387.773438 C 207.96875 387.785156 211.261719 387.636719 213.867188 387.09375 C 220.355469 385.742188 226.328125 382.65625 226.328125 382.65625 C 226.328125 382.65625 226.378906 381.386719 226.253906 379.425781 C 223.496094 380.605469 214.785156 384.335938 214.09375 384.65625 C 213.289062 385.027344 208.507812 385.035156 208.148438 384.753906 C 207.789062 384.472656 204.207031 356.792969 204.261719 354.695312 C 204.277344 354.089844 204.488281 353.09375 204.773438 351.988281 C 203.636719 351.542969 202.480469 351.160156 201.304688 350.839844 Z M 207.359375 353.101562 C 207.9375 356.90625 209.574219 371.207031 210.007812 371.355469 C 210.375 371.480469 210.613281 360.488281 210.65625 354.871094 C 209.523438 354.195312 208.421875 353.609375 207.359375 353.101562 Z M 185.476562 353.757812 C 184.445312 354.324219 183.378906 354.972656 182.289062 355.714844 C 182.65625 361.332031 183.523438 372.25 183.878906 372.105469 C 184.300781 371.933594 185.113281 357.625 185.476562 353.757812 Z M 177.878906 359.164062 C 176.882812 360.054688 175.882812 361.027344 174.882812 362.089844 C 175.457031 365.921875 176.328125 372.191406 176.683594 372.3125 C 177.128906 372.464844 177.878906 361.59375 177.878906 359.164062 Z M 215.394531 358.160156 C 215.554688 360.726562 216.90625 371.320312 217.335938 371.144531 C 217.683594 371.003906 218.1875 364.773438 218.539062 360.910156 C 217.488281 359.902344 216.4375 358.988281 215.394531 358.160156 Z M 215.394531 358.160156 "/><g clip-rule="nonzero" clip-path="url(#08b2601b3e)"><path style=" stroke:none;fill-rule:evenodd;fill:#006770;fill-opacity:1;" d="M 188.511719 387.277344 C 188.511719 387.277344 191.433594 348.378906 192.25 348.1875 C 193.070312 348 200.308594 347.546875 200.730469 347.863281 C 201.152344 348.179688 206.539062 386.59375 206.539062 386.59375 Z M 188.511719 387.277344 "/></g><path style=" stroke:none;fill-rule:evenodd;fill:#ffffff;fill-opacity:1;" d="M 185.875 388.015625 C 187.695312 388.488281 208.648438 387.59375 208.816406 387.355469 C 208.984375 387.117188 209.035156 384.84375 208.804688 384.851562 C 208.570312 384.855469 186.910156 385.535156 186.910156 385.535156 Z M 185.875 388.015625 "/><g clip-rule="nonzero" clip-path="url(#65282ad9be)"><path style=" stroke:none;fill-rule:evenodd;fill:#006770;fill-opacity:1;" d="M 168.359375 382.746094 C 167.894531 382.878906 163.527344 384.925781 163.484375 385.507812 C 163.445312 386.09375 163.441406 392.097656 163.6875 392.613281 C 163.9375 393.128906 167.789062 391.328125 168.84375 391.476562 C 169.894531 391.621094 178.09375 394.996094 180.261719 395.402344 C 182.105469 395.746094 193.753906 395.300781 197.636719 395.003906 C 201.53125 395.078125 213.183594 394.855469 215.007812 394.402344 C 217.148438 393.875 225.140625 390.035156 226.183594 389.828125 C 227.226562 389.625 231.175781 391.203125 231.394531 390.671875 C 231.609375 390.140625 231.265625 384.148438 231.191406 383.566406 C 231.113281 382.988281 226.632812 381.191406 226.164062 381.089844 C 225.695312 380.984375 215.632812 385.703125 213.488281 386.054688 C 207.070312 386.566406 192.230469 386.667969 181.300781 386.980469 C 179.136719 386.75 168.820312 382.617188 168.359375 382.746094 Z M 168.359375 382.746094 "/></g><path style=" stroke:none;fill-rule:evenodd;fill:#006770;fill-opacity:1;" d="M 217.230469 371.207031 C 217.230469 371.207031 217.132812 357.734375 216.789062 357.167969 C 216.441406 356.601562 210.769531 352.808594 209.945312 352.792969 C 209.121094 352.773438 210.09375 371.292969 210.09375 371.292969 Z M 217.230469 371.207031 "/><path style=" stroke:none;fill-rule:evenodd;fill:#006770;fill-opacity:1;" d="M 176.710938 372.371094 C 176.710938 372.371094 176.035156 358.914062 176.347656 358.328125 C 176.660156 357.742188 182.105469 353.632812 182.929688 353.566406 C 183.75 353.5 183.84375 372.046875 183.84375 372.046875 Z M 176.710938 372.371094 "/><path style=" stroke:none;fill-rule:evenodd;fill:#006770;fill-opacity:1;" d="M 412.015625 350.0625 C 408.09375 350.796875 398.449219 353.609375 389.644531 364.140625 C 383.589844 371.382812 384.863281 384.324219 384.863281 384.324219 C 384.863281 384.324219 391.003906 387.058594 397.558594 388.039062 C 403.023438 388.851562 411.355469 387.808594 413.996094 387.4375 C 416.65625 387.65625 425.03125 388.222656 430.441406 387.09375 C 436.929688 385.742188 442.902344 382.65625 442.902344 382.65625 C 442.902344 382.65625 443.433594 369.667969 436.972656 362.78125 C 427.582031 352.773438 417.789062 350.519531 413.832031 350.011719 C 413.222656 349.953125 412.617188 349.96875 412.015625 350.0625 Z M 412.015625 350.0625 "/><path style=" stroke:none;fill-rule:evenodd;fill:#ffffff;fill-opacity:1;" d="M 408.28125 351.035156 C 407.125 351.414062 405.992188 351.851562 404.878906 352.351562 C 405.246094 353.480469 405.53125 354.507812 405.582031 355.132812 C 405.757812 357.226562 403.765625 385.0625 403.425781 385.363281 C 403.082031 385.664062 398.308594 385.933594 397.484375 385.605469 C 396.757812 385.320312 387.265625 381.886719 384.753906 380.980469 C 384.734375 383.003906 384.863281 384.324219 384.863281 384.324219 C 384.863281 384.324219 391.003906 387.058594 397.558594 388.039062 C 400.277344 388.445312 403.703125 388.390625 406.789062 388.1875 C 406.820312 387.914062 406.851562 387.601562 406.882812 387.210938 L 405.085938 387.277344 C 405.085938 387.277344 407.136719 360.019531 408.28125 351.035156 Z M 417.878906 350.839844 C 419.363281 359.839844 423.117188 386.59375 423.117188 386.59375 L 421.359375 386.660156 C 421.421875 387.113281 421.476562 387.472656 421.53125 387.773438 C 424.542969 387.785156 427.835938 387.636719 430.441406 387.09375 C 436.929688 385.742188 442.902344 382.65625 442.902344 382.65625 C 442.902344 382.65625 442.953125 381.386719 442.828125 379.425781 C 440.070312 380.605469 431.363281 384.335938 430.667969 384.65625 C 429.863281 385.027344 425.082031 385.035156 424.726562 384.753906 C 424.367188 384.472656 420.78125 356.792969 420.839844 354.695312 C 420.855469 354.089844 421.066406 353.09375 421.351562 351.988281 C 420.214844 351.542969 419.058594 351.160156 417.878906 350.839844 Z M 423.933594 353.101562 C 424.515625 356.90625 426.152344 371.207031 426.585938 371.355469 C 426.949219 371.480469 427.191406 360.488281 427.234375 354.871094 C 426.101562 354.195312 424.996094 353.609375 423.933594 353.101562 Z M 402.054688 353.757812 C 401.023438 354.324219 399.957031 354.972656 398.863281 355.714844 C 399.230469 361.332031 400.097656 372.25 400.457031 372.105469 C 400.878906 371.933594 401.691406 357.625 402.054688 353.757812 Z M 394.453125 359.164062 C 393.457031 360.054688 392.460938 361.027344 391.460938 362.089844 C 392.035156 365.921875 392.902344 372.191406 393.261719 372.3125 C 393.707031 372.464844 394.457031 361.59375 394.453125 359.164062 Z M 431.96875 358.160156 C 432.128906 360.726562 433.480469 371.320312 433.910156 371.144531 C 434.257812 371.003906 434.761719 364.773438 435.117188 360.910156 C 434.0625 359.902344 433.011719 358.988281 431.96875 358.160156 Z M 431.96875 358.160156 "/><g clip-rule="nonzero" clip-path="url(#c00b8820ae)"><path style=" stroke:none;fill-rule:evenodd;fill:#006770;fill-opacity:1;" d="M 405.085938 387.277344 C 405.085938 387.277344 408.007812 348.378906 408.828125 348.1875 C 409.648438 348 416.886719 347.546875 417.308594 347.863281 C 417.726562 348.179688 423.117188 386.59375 423.117188 386.59375 Z M 405.085938 387.277344 "/></g><path style=" stroke:none;fill-rule:evenodd;fill:#ffffff;fill-opacity:1;" d="M 402.453125 388.015625 C 404.273438 388.488281 425.226562 387.59375 425.394531 387.355469 C 425.5625 387.117188 425.613281 384.84375 425.378906 384.851562 C 425.144531 384.855469 403.488281 385.535156 403.488281 385.535156 Z M 402.453125 388.015625 "/><g clip-rule="nonzero" clip-path="url(#f18db01edf)"><path style=" stroke:none;fill-rule:evenodd;fill:#006770;fill-opacity:1;" d="M 384.933594 382.746094 C 384.472656 382.878906 380.101562 384.925781 380.0625 385.507812 C 380.019531 386.09375 380.015625 392.097656 380.265625 392.613281 C 380.511719 393.128906 384.367188 391.328125 385.417969 391.476562 C 386.472656 391.621094 394.667969 394.996094 396.835938 395.402344 C 398.683594 395.746094 410.332031 395.300781 414.214844 395.003906 C 418.109375 395.078125 429.761719 394.855469 431.585938 394.402344 C 433.726562 393.875 441.714844 390.035156 442.757812 389.828125 C 443.800781 389.625 447.75 391.203125 447.96875 390.671875 C 448.1875 390.140625 447.839844 384.148438 447.765625 383.566406 C 447.691406 382.988281 443.210938 381.191406 442.742188 381.089844 C 442.273438 380.984375 432.210938 385.703125 430.0625 386.054688 C 423.648438 386.566406 408.808594 386.667969 397.875 386.980469 C 395.714844 386.75 385.398438 382.617188 384.933594 382.746094 Z M 384.933594 382.746094 "/></g><path style=" stroke:none;fill-rule:evenodd;fill:#006770;fill-opacity:1;" d="M 433.808594 371.207031 C 433.808594 371.207031 433.710938 357.734375 433.363281 357.167969 C 433.019531 356.601562 427.347656 352.808594 426.523438 352.792969 C 425.699219 352.773438 426.667969 371.292969 426.667969 371.292969 Z M 433.808594 371.207031 "/><path style=" stroke:none;fill-rule:evenodd;fill:#006770;fill-opacity:1;" d="M 393.285156 372.371094 C 393.285156 372.371094 392.613281 358.914062 392.925781 358.328125 C 393.238281 357.742188 398.683594 353.632812 399.503906 353.566406 C 400.328125 353.5 400.421875 372.046875 400.421875 372.046875 Z M 393.285156 372.371094 "/></g></svg>