<svg width="96" height="95" viewBox="0 0 96 95" fill="none" xmlns="http://www.w3.org/2000/svg">
<path fill-rule="evenodd" clip-rule="evenodd" d="M47.7335 51H47.8135C58.8595 51 67.8135 42.046 67.8135 31C67.8135 19.954 58.8595 11 47.8135 11H47.6535C36.6815 11.086 27.8135 20.008 27.8135 31C27.8135 41.992 36.6815 50.914 47.6535 51H47.7335ZM63.6895 33H59.6895C59.6095 34.38 59.4415 35.718 59.1995 37H62.6515C63.1615 35.74 63.5155 34.398 63.6915 33M60.3055 41H58.1455C57.7355 42.18 57.2555 43.286 56.7135 44.3C58.0709 43.3888 59.2834 42.276 60.3055 41ZM55.1195 37C55.3935 35.746 55.5875 34.406 55.6815 33H49.8135V37H55.1195ZM49.8135 41H53.8595C53.5562 41.7179 53.204 42.4142 52.8055 43.084C51.8055 44.746 50.7715 45.774 49.8135 46.356V41ZM45.8135 37V33H39.8175C39.9115 34.406 40.1055 35.746 40.3795 37H45.8135ZM41.6395 41H45.8135V46.432C44.8215 45.864 43.7375 44.822 42.6935 43.084C42.295 42.4142 41.9428 41.7179 41.6395 41ZM36.2995 37C36.0516 35.6784 35.8879 34.3424 35.8095 33H31.9375C32.1115 34.398 32.4655 35.74 32.9775 37H36.2995ZM35.3235 41H37.3555C37.7455 42.128 38.2035 43.188 38.7155 44.162C37.438 43.2773 36.2955 42.2123 35.3235 41ZM59.6895 29C59.6108 27.6577 59.4471 26.3216 59.1995 25H62.6515C63.1615 26.26 63.5155 27.602 63.6915 29H59.6895ZM60.3035 21H58.1435C57.7531 19.8643 57.2743 18.7609 56.7115 17.7C58.0696 18.6111 59.2808 19.7238 60.3035 21ZM49.8135 21H53.8595C53.5562 20.2821 53.204 19.5858 52.8055 18.916C51.8055 17.252 50.7715 16.226 49.8135 15.644V21ZM55.1195 25H49.8135V29H55.6815C55.5929 27.6546 55.4051 26.3177 55.1195 25ZM45.8135 15.568V21H41.6395C41.9595 20.246 42.3155 19.548 42.6935 18.916C43.7355 17.178 44.8215 16.136 45.8135 15.568ZM45.8135 25H40.3795C40.0939 26.3177 39.906 27.6546 39.8175 29H45.8135V25ZM38.7135 17.838C38.1821 18.8567 37.7275 19.9136 37.3535 21H35.3235C36.2955 19.7877 37.4361 18.7227 38.7135 17.838ZM36.3015 25H32.9775C32.4582 26.2824 32.1085 27.6271 31.9375 29H35.8115C35.8915 27.62 36.0595 26.282 36.3015 25Z" fill="#FEF0E7"/>
<path d="M19.968 64.2423C21.102 65.4463 22.228 66.6423 23.288 68.1623V71.0003H38.154V68.1623C37.888 65.9543 37.42 61.9763 37.378 60.8703C37.322 59.3143 35.234 56.4783 35.234 56.4783L28.824 48.3983C28.824 48.3983 27.01 46.4823 25.972 44.3583C24.932 42.2323 22.724 44.9063 22.432 46.8183C22.136 48.7303 22.696 49.7383 22.696 49.7383L26.356 57.0143C26.356 57.0143 22.112 51.2003 20.794 48.8643C20.126 47.6803 19.94 45.1723 19.73 42.3703C19.528 39.6403 19.304 36.6303 18.594 34.2903C17.154 29.5503 12.99 30.7363 12.268 32.8563C11.548 34.9743 11.71 48.9723 11.972 51.3063C12.178 53.1343 13.28 54.9223 14.522 56.9383C14.866 57.4983 15.222 58.0743 15.572 58.6723C16.964 61.0563 18.472 62.6583 19.968 64.2423ZM72.216 68.1623C73.276 66.6423 74.402 65.4463 75.536 64.2423C77.032 62.6583 78.54 61.0563 79.934 58.6723C80.282 58.0723 80.638 57.4983 80.982 56.9403C82.224 54.9243 83.326 53.1343 83.532 51.3063C83.794 48.9723 83.958 34.9743 83.236 32.8563C82.514 30.7363 78.35 29.5503 76.91 34.2923C76.202 36.6323 75.978 39.6403 75.774 42.3703C75.564 45.1723 75.378 47.6803 74.71 48.8643C73.392 51.2023 69.146 57.0143 69.146 57.0143L72.808 49.7383C72.808 49.7383 73.368 48.7303 73.074 46.8183C72.78 44.9063 70.572 42.2323 69.534 44.3583C68.494 46.4823 66.68 48.3983 66.68 48.3983L60.27 56.4783C60.27 56.4783 58.182 59.3143 58.126 60.8703C58.086 61.9763 57.616 65.9543 57.35 68.1623V71.0003H72.216V68.1623ZM51.75 81.0003C51.75 81.5308 51.9607 82.0395 52.3358 82.4146C52.7108 82.7896 53.2196 83.0003 53.75 83.0003H69.75C70.2804 83.0003 70.7891 82.7896 71.1642 82.4146C71.5393 82.0395 71.75 81.5308 71.75 81.0003V77.0003C71.75 76.4699 71.5393 75.9612 71.1642 75.5861C70.7891 75.2111 70.2804 75.0003 69.75 75.0003H53.75C53.2196 75.0003 52.7108 75.2111 52.3358 75.5861C51.9607 75.9612 51.75 76.4699 51.75 77.0003V81.0003ZM43.754 81.0003C43.754 81.5308 43.5433 82.0395 43.1682 82.4146C42.7931 82.7896 42.2844 83.0003 41.754 83.0003H25.754C25.2236 83.0003 24.7149 82.7896 24.3398 82.4146C23.9647 82.0395 23.754 81.5308 23.754 81.0003V77.0003C23.754 76.4699 23.9647 75.9612 24.3398 75.5861C24.7149 75.2111 25.2236 75.0003 25.754 75.0003H41.754C42.2844 75.0003 42.7931 75.2111 43.1682 75.5861C43.5433 75.9612 43.754 76.4699 43.754 77.0003V81.0003Z" fill="#FEF0E7"/>
</svg>
