<svg width="269" height="76" viewBox="0 0 269 76" fill="none" xmlns="http://www.w3.org/2000/svg">
<g clip-path="url(#clip0_1_34)">
<mask id="mask0_1_34" style="mask-type:luminance" maskUnits="userSpaceOnUse" x="0" y="0" width="269" height="76">
<path d="M268.5 0.0517578H0.5V75.0417H268.5V0.0517578Z" fill="white"/>
</mask>
<g mask="url(#mask0_1_34)">
<mask id="mask1_1_34" style="mask-type:luminance" maskUnits="userSpaceOnUse" x="0" y="0" width="269" height="76">
<path d="M268.5 0.46582H0.5V75.4557H268.5V0.46582Z" fill="white"/>
</mask>
<g mask="url(#mask1_1_34)">
<mask id="mask2_1_34" style="mask-type:luminance" maskUnits="userSpaceOnUse" x="0" y="0" width="269" height="76">
<path d="M268.291 0.46582H0.5V75.4557H268.291V0.46582Z" fill="white"/>
</mask>
<g mask="url(#mask2_1_34)">
<path d="M93.8709 16.1357C95.9597 16.1357 97.4219 16.1357 99.3019 15.9268V16.7623C97.4219 17.1801 96.7953 18.4334 96.7953 22.4022V29.7132C96.7953 30.7577 97.0042 32.011 97.0042 32.4287C97.213 33.4732 98.0486 33.8909 99.3019 33.8909C101.6 33.8909 103.48 32.4287 105.568 28.8777L106.822 29.5044C105.986 31.3843 105.151 33.4732 104.733 35.562C102.435 35.3531 99.5108 35.3531 96.7953 35.3531H92.8264C91.5731 35.3531 90.1109 35.3531 89.2754 35.3531V34.5176C91.1554 34.0998 91.782 32.8465 91.782 28.8777V22.1934C91.782 18.2245 91.1554 16.9712 89.2754 16.5535V16.1357C90.5287 16.1357 91.782 16.1357 93.8709 16.1357Z" fill="white"/>
</g>
<mask id="mask3_1_34" style="mask-type:luminance" maskUnits="userSpaceOnUse" x="0" y="0" width="269" height="76">
<path d="M268.291 0.46582H0.5V75.4557H268.291V0.46582Z" fill="white"/>
</mask>
<g mask="url(#mask3_1_34)">
<path d="M122.489 32.2144C121.862 34.721 120.4 35.7655 118.311 35.7655C116.431 35.7655 115.596 34.9299 115.387 32.8411C114.342 34.9299 113.089 35.7655 111 35.7655C108.703 35.7655 107.449 34.5122 107.449 32.4233C107.449 29.4989 110.165 27.8278 115.387 27.6189V27.2012C115.387 23.859 114.969 22.3968 113.507 22.3968C112.462 22.3968 111.836 23.2324 111.836 24.4857C111.836 25.5301 112.254 26.1567 112.462 26.3656C112.045 26.5745 111.418 26.7834 110.374 26.7834C108.703 26.7834 107.867 25.9479 107.867 24.4857C107.867 22.3968 110.791 20.9346 114.969 20.9346C118.311 20.9346 119.773 22.1879 119.773 25.1123C119.773 26.3656 119.565 28.2456 119.565 29.29C119.565 32.0055 119.773 32.8411 120.4 32.8411C121.027 32.8411 121.236 32.0055 121.445 31.5878L122.489 32.2144ZM112.045 31.5878C112.045 32.6322 112.462 33.2589 113.298 33.2589C114.134 33.2589 114.969 32.6322 115.596 31.3789V28.6634C113.298 28.8723 112.045 29.9167 112.045 31.5878Z" fill="white"/>
</g>
<mask id="mask4_1_34" style="mask-type:luminance" maskUnits="userSpaceOnUse" x="0" y="0" width="269" height="76">
<path d="M268.291 0.46582H0.5V75.4557H268.291V0.46582Z" fill="white"/>
</mask>
<g mask="url(#mask4_1_34)">
<path d="M103.481 47.6736C102.645 44.3315 100.765 42.8693 98.2584 42.8693C94.9163 42.8693 93.0363 45.5848 93.0363 51.0158C93.0363 54.5669 93.8718 59.5801 98.2584 59.5801C101.183 59.5801 103.481 57.909 105.152 54.1491L106.614 54.7757C105.987 56.6557 105.569 58.1179 105.152 59.9979C103.272 60.6245 100.138 61.0423 97.4229 61.0423C90.3208 61.0423 87.1875 57.909 87.1875 51.2247C87.1875 44.3315 90.7386 40.9893 98.4673 40.9893C100.765 40.9893 102.854 41.1982 104.734 41.616C104.734 42.8693 104.525 43.4959 104.525 44.3315C104.525 45.167 104.525 46.2114 104.734 47.2559H103.481V47.6736Z" fill="white"/>
</g>
<mask id="mask5_1_34" style="mask-type:luminance" maskUnits="userSpaceOnUse" x="0" y="0" width="269" height="76">
<path d="M268.291 0.46582H0.5V75.4557H268.291V0.46582Z" fill="white"/>
</mask>
<g mask="url(#mask5_1_34)">
<path d="M115.596 61.043C110.583 61.043 108.076 58.5364 108.076 53.9409C108.076 49.1365 110.792 46.6299 116.014 46.6299C120.818 46.6299 123.534 49.1365 123.534 53.732C123.534 58.5364 120.818 61.043 115.596 61.043ZM115.596 48.0921C113.925 48.0921 112.881 49.9721 112.881 53.1054C112.881 57.2831 113.925 59.5808 115.805 59.5808C117.476 59.5808 118.729 57.492 118.729 54.1498C118.729 50.3899 117.685 48.0921 115.596 48.0921Z" fill="white"/>
</g>
<mask id="mask6_1_34" style="mask-type:luminance" maskUnits="userSpaceOnUse" x="0" y="0" width="269" height="76">
<path d="M268.291 0.46582H0.5V75.4557H268.291V0.46582Z" fill="white"/>
</mask>
<g mask="url(#mask6_1_34)">
<path d="M130.845 46.0034V55.4033C130.845 58.5365 131.471 59.9987 132.725 60.2076V60.8343C131.471 60.6254 129.8 60.6254 128.547 60.6254C127.085 60.6254 125.623 60.6254 124.578 60.8343V60.2076C126.04 59.7899 126.458 58.5365 126.458 55.4033V44.959C126.458 42.2435 126.249 40.1546 124.578 39.528V38.9013L131.262 38.6924C131.054 40.7813 130.845 42.8701 130.845 46.0034Z" fill="white"/>
</g>
<mask id="mask7_1_34" style="mask-type:luminance" maskUnits="userSpaceOnUse" x="0" y="0" width="269" height="76">
<path d="M268.291 0.46582H0.5V75.4557H268.291V0.46582Z" fill="white"/>
</mask>
<g mask="url(#mask7_1_34)">
<path d="M149.852 57.4879C149.226 59.9945 147.763 61.0389 145.675 61.0389C143.795 61.0389 142.959 60.2034 142.75 58.1145C141.706 60.2034 140.452 61.0389 138.364 61.0389C136.066 61.0389 134.812 59.7856 134.812 57.6967C134.812 54.7724 137.528 53.1013 142.75 52.8924V52.4746C142.75 49.1324 142.332 47.6702 140.87 47.6702C139.826 47.6702 139.199 48.5058 139.199 49.7591C139.199 50.8035 139.617 51.4302 139.826 51.6391C139.408 51.848 138.781 52.0568 137.737 52.0568C136.066 52.0568 135.23 51.2213 135.23 49.7591C135.23 47.6702 138.155 46.208 142.332 46.208C145.675 46.208 147.137 47.4614 147.137 50.3858C147.137 51.6391 146.928 53.519 146.928 54.5635C146.928 57.279 147.137 58.1145 147.763 58.1145C148.39 58.1145 148.599 57.279 148.808 56.8612L149.852 57.4879ZM139.408 56.8612C139.408 57.9056 139.826 58.5323 140.661 58.5323C141.497 58.5323 142.332 57.9056 142.959 56.6523V53.9368C140.661 54.1457 139.408 55.1901 139.408 56.8612Z" fill="white"/>
</g>
<mask id="mask8_1_34" style="mask-type:luminance" maskUnits="userSpaceOnUse" x="0" y="0" width="269" height="76">
<path d="M268.291 0.46582H0.5V75.4557H268.291V0.46582Z" fill="white"/>
</mask>
<g mask="url(#mask8_1_34)">
<path d="M151.733 59.3683V44.7463C151.733 41.613 151.316 40.3597 149.854 39.9419V39.3153L156.538 39.1064C156.329 41.4041 156.329 43.9108 156.329 46.2085V50.5951C157.791 47.8796 159.462 46.6263 161.76 46.6263C164.684 46.6263 166.564 49.1329 166.564 53.5195C166.564 58.7416 163.64 61.2482 157.165 61.2482C154.031 61.2482 152.151 60.8305 151.316 60.6216L151.733 59.3683ZM156.329 55.1906C156.329 58.115 157.165 59.5772 158.836 59.5772C160.716 59.5772 161.969 57.6972 161.969 54.5639C161.969 51.6395 160.924 49.9684 159.253 49.9684C157.582 49.9684 156.747 51.4306 156.329 52.8928V55.1906Z" fill="white"/>
</g>
<mask id="mask9_1_34" style="mask-type:luminance" maskUnits="userSpaceOnUse" x="0" y="0" width="269" height="76">
<path d="M268.291 0.46582H0.5V75.4557H268.291V0.46582Z" fill="white"/>
</mask>
<g mask="url(#mask9_1_34)">
<path d="M175.963 61.043C170.95 61.043 168.443 58.5364 168.443 53.9409C168.443 49.1365 171.159 46.6299 176.381 46.6299C181.185 46.6299 183.901 49.1365 183.901 53.732C183.901 58.5364 181.185 61.043 175.963 61.043ZM175.963 48.0921C174.292 48.0921 173.248 49.9721 173.248 53.1054C173.248 57.2831 174.292 59.5808 176.172 59.5808C177.843 59.5808 179.097 57.492 179.097 54.1498C179.097 50.3899 178.052 48.0921 175.963 48.0921Z" fill="white"/>
</g>
<mask id="mask10_1_34" style="mask-type:luminance" maskUnits="userSpaceOnUse" x="0" y="0" width="269" height="76">
<path d="M268.291 0.46582H0.5V75.4557H268.291V0.46582Z" fill="white"/>
</mask>
<g mask="url(#mask10_1_34)">
<path d="M192.257 50.8076C193.092 48.0921 194.555 46.6299 196.643 46.6299C198.106 46.6299 199.15 47.4655 199.15 48.9277C199.15 50.5987 197.688 52.0609 195.599 52.4787C195.808 52.2698 196.017 51.8521 196.017 51.2254C196.017 50.3899 195.599 49.7632 194.763 49.7632C194.137 49.7632 193.51 50.3899 192.883 51.4343C192.466 52.4787 192.257 53.3143 192.257 55.612C192.257 58.9542 192.883 60.4164 194.555 60.4164V61.043C193.301 60.8341 191.63 60.8341 190.168 60.8341C188.706 60.8341 187.452 60.8341 185.99 61.043V60.4164C187.244 59.9986 187.87 58.7453 187.87 55.612V53.1054C187.87 49.7632 187.452 48.301 185.99 47.6744V47.0477L192.466 46.6299L192.257 50.8076Z" fill="white"/>
</g>
<mask id="mask11_1_34" style="mask-type:luminance" maskUnits="userSpaceOnUse" x="0" y="0" width="269" height="76">
<path d="M268.291 0.46582H0.5V75.4557H268.291V0.46582Z" fill="white"/>
</mask>
<g mask="url(#mask11_1_34)">
<path d="M214.817 57.4879C214.19 59.9945 212.728 61.0389 210.639 61.0389C208.759 61.0389 207.924 60.2034 207.715 58.1145C206.671 60.2034 205.417 61.0389 203.328 61.0389C201.031 61.0389 199.777 59.7856 199.777 57.6967C199.777 54.7724 202.493 53.1013 207.715 52.8924V52.4746C207.715 49.1324 207.297 47.6702 205.835 47.6702C204.791 47.6702 204.164 48.5058 204.164 49.7591C204.164 50.8035 204.582 51.4302 204.791 51.6391C204.373 51.848 203.746 52.0568 202.702 52.0568C201.031 52.0568 200.195 51.2213 200.195 49.7591C200.195 47.6702 203.12 46.208 207.297 46.208C210.639 46.208 212.102 47.4614 212.102 50.3858C212.102 51.6391 211.893 53.519 211.893 54.5635C211.893 57.279 212.102 58.1145 212.728 58.1145C213.355 58.1145 213.564 57.279 213.773 56.8612L214.817 57.4879ZM204.373 56.8612C204.373 57.9056 204.791 58.5323 205.626 58.5323C206.462 58.5323 207.297 57.9056 207.924 56.6523V53.9368C205.626 54.1457 204.373 55.1901 204.373 56.8612Z" fill="white"/>
</g>
<mask id="mask12_1_34" style="mask-type:luminance" maskUnits="userSpaceOnUse" x="0" y="0" width="269" height="76">
<path d="M268.291 0.46582H0.5V75.4557H268.291V0.46582Z" fill="white"/>
</mask>
<g mask="url(#mask12_1_34)">
<path d="M247.194 52.6876C247.82 51.0165 248.238 49.9721 248.238 49.1365C248.238 48.0921 247.612 47.6744 245.94 47.2566V46.6299C246.985 46.8388 248.447 46.8388 249.7 46.8388C250.954 46.8388 251.998 46.8388 253.043 46.6299V47.2566C251.789 47.6744 250.118 50.5987 249.074 52.6876L247.194 57.0742C246.567 58.3275 246.149 59.7897 245.732 60.8341H242.598L238.629 51.4343C237.585 48.9277 236.75 47.6744 235.705 47.2566V46.6299C236.75 46.6299 238.421 46.8388 239.883 46.8388C241.345 46.8388 243.016 46.8388 244.269 46.6299V47.2566C243.225 47.4655 242.598 47.8832 242.598 48.5099C242.598 49.3454 243.016 50.181 243.643 51.8521L245.523 56.4475L247.194 52.6876Z" fill="white"/>
</g>
<mask id="mask13_1_34" style="mask-type:luminance" maskUnits="userSpaceOnUse" x="0" y="0" width="269" height="76">
<path d="M268.291 0.46582H0.5V75.4557H268.291V0.46582Z" fill="white"/>
</mask>
<g mask="url(#mask13_1_34)">
<path d="M268.501 57.4879C267.874 59.9945 266.412 61.0389 264.323 61.0389C262.443 61.0389 261.607 60.2034 261.399 58.1145C260.354 60.2034 259.101 61.0389 257.012 61.0389C254.714 61.0389 253.461 59.7856 253.461 57.6967C253.461 54.7724 256.176 53.1013 261.399 52.8924V52.4746C261.399 49.1324 260.981 47.6702 259.519 47.6702C258.474 47.6702 257.848 48.5058 257.848 49.7591C257.848 50.8035 258.265 51.4302 258.474 51.6391C258.056 51.848 257.43 52.0568 256.385 52.0568C254.714 52.0568 253.879 51.2213 253.879 49.7591C253.879 47.6702 256.803 46.208 260.981 46.208C264.323 46.208 265.785 47.4614 265.785 50.3858C265.785 51.6391 265.576 53.519 265.576 54.5635C265.576 57.279 265.785 58.1145 266.412 58.1145C267.038 58.1145 267.247 57.279 267.456 56.8612L268.501 57.4879ZM257.848 56.8612C257.848 57.9056 258.265 58.5323 259.101 58.5323C259.936 58.5323 260.772 57.9056 261.399 56.6523V53.9368C259.101 54.1457 257.848 55.1901 257.848 56.8612Z" fill="white"/>
</g>
<mask id="mask14_1_34" style="mask-type:luminance" maskUnits="userSpaceOnUse" x="0" y="0" width="269" height="76">
<path d="M268.291 0.46582H0.5V75.4557H268.291V0.46582Z" fill="white"/>
</mask>
<g mask="url(#mask14_1_34)">
<path d="M66.9253 46.6275C63.1654 45.7919 60.6588 42.032 61.2854 38.2721C62.121 34.5121 65.8809 32.0055 69.6408 32.6321C73.4008 33.4677 75.9074 37.2276 75.2807 40.9876C74.4452 44.9564 70.8941 47.463 66.9253 46.6275Z" fill="#006770"/>
</g>
<mask id="mask15_1_34" style="mask-type:luminance" maskUnits="userSpaceOnUse" x="0" y="0" width="269" height="76">
<path d="M268.291 0.46582H0.5V75.4557H268.291V0.46582Z" fill="white"/>
</mask>
<g mask="url(#mask15_1_34)">
<path d="M58.3619 59.5774C55.4375 57.6975 53.1398 55.1909 51.4688 52.2665C52.722 51.222 53.7665 49.9687 54.602 48.5065C58.5709 42.24 58.5708 34.5112 55.2286 28.2446C56.0641 27.4091 56.8997 26.7824 57.9441 26.1558C60.033 24.6936 62.3308 23.858 64.8374 23.2314C63.3752 24.4847 61.9129 26.1558 60.8685 27.8269C59.8241 29.7068 58.9886 31.5868 58.3619 33.4668C56.6908 40.1511 58.362 47.2532 62.9574 52.2665L58.3619 59.5774Z" fill="#F0CC1C"/>
</g>
<mask id="mask16_1_34" style="mask-type:luminance" maskUnits="userSpaceOnUse" x="0" y="0" width="269" height="76">
<path d="M268.291 0.46582H0.5V75.4557H268.291V0.46582Z" fill="white"/>
</mask>
<g mask="url(#mask16_1_34)">
<path d="M51.4685 52.2689C48.1263 46.2113 48.1263 38.4825 52.0951 32.0071C52.9307 30.5449 53.9751 29.2915 55.2284 28.2471C58.5706 34.3048 58.5706 42.0335 54.6018 48.509C53.5573 49.9712 52.5129 51.2245 51.4685 52.2689Z" fill="#F47920"/>
</g>
<mask id="mask17_1_34" style="mask-type:luminance" maskUnits="userSpaceOnUse" x="0" y="0" width="269" height="76">
<path d="M268.291 0.46582H0.5V75.4557H268.291V0.46582Z" fill="white"/>
</mask>
<g mask="url(#mask17_1_34)">
<path d="M38.3081 14.4634C34.5482 13.6279 32.0416 9.86788 32.6682 6.10795C33.5038 2.34801 37.2637 -0.158617 41.0237 0.468039C44.7836 1.30358 47.2902 5.06352 46.6636 8.82346C45.828 12.7923 42.0681 15.2989 38.3081 14.4634Z" fill="#F47920"/>
</g>
<mask id="mask18_1_34" style="mask-type:luminance" maskUnits="userSpaceOnUse" x="0" y="0" width="269" height="76">
<path d="M268.291 0.46582H0.5V75.4557H268.291V0.46582Z" fill="white"/>
</mask>
<g mask="url(#mask18_1_34)">
<path d="M59.6156 17.5976C57.7356 20.522 55.229 22.8197 52.3046 24.4908C51.2602 23.2375 50.0069 22.193 48.5447 21.3575C42.2781 17.3887 34.5493 17.3887 28.2828 20.7308C27.4472 19.8953 26.8206 19.0598 26.1939 18.0153C24.7317 15.9265 23.8962 13.6287 23.2695 11.1221C24.5228 12.5843 26.1939 14.0465 27.865 15.0909C29.745 16.3442 31.6249 17.1798 33.5049 17.5976C40.1893 19.2686 47.2914 17.5976 52.3046 13.0021L59.6156 17.5976Z" fill="#01AC99"/>
</g>
<mask id="mask19_1_34" style="mask-type:luminance" maskUnits="userSpaceOnUse" x="0" y="0" width="269" height="76">
<path d="M268.291 0.46582H0.5V75.4557H268.291V0.46582Z" fill="white"/>
</mask>
<g mask="url(#mask19_1_34)">
<path d="M52.3032 24.4872C46.2454 27.8293 38.5167 27.8293 32.0413 23.8605C30.5791 23.025 29.3257 21.9805 28.2812 20.7272C34.339 17.3851 42.0677 17.3851 48.5431 21.3539C50.0053 22.1894 51.2586 23.2338 52.3032 24.4872Z" fill="#006770"/>
</g>
<mask id="mask20_1_34" style="mask-type:luminance" maskUnits="userSpaceOnUse" x="0" y="0" width="269" height="76">
<path d="M268.291 0.46582H0.5V75.4557H268.291V0.46582Z" fill="white"/>
</mask>
<g mask="url(#mask20_1_34)">
<path d="M6.14017 43.0805C2.38023 42.2449 -0.126391 38.485 0.500265 34.7251C1.33581 30.9651 5.09574 28.4585 8.85568 29.0852C12.6156 29.9207 15.1222 33.6806 14.4956 37.4406C13.66 41.4094 10.109 43.916 6.14017 43.0805Z" fill="#01AC99"/>
</g>
<mask id="mask21_1_34" style="mask-type:luminance" maskUnits="userSpaceOnUse" x="0" y="0" width="269" height="76">
<path d="M268.291 0.46582H0.5V75.4557H268.291V0.46582Z" fill="white"/>
</mask>
<g mask="url(#mask21_1_34)">
<path d="M17.6278 16.1299C20.5522 18.0099 22.8499 20.5165 24.521 23.4409C23.2677 24.4853 22.2233 25.7387 21.3877 27.2009C17.4189 33.4674 17.4189 41.1962 20.7611 47.4627C19.9255 48.2983 19.09 48.9249 18.0456 49.5516C15.9567 51.0138 13.659 51.8493 11.1523 52.476C12.6145 51.2227 14.0767 49.5516 15.1212 47.8805C16.3745 46.2094 17.21 44.3295 17.6278 42.4495C19.2989 35.7652 17.6278 28.6631 13.0323 23.6498L17.6278 16.1299Z" fill="#F47920"/>
</g>
<mask id="mask22_1_34" style="mask-type:luminance" maskUnits="userSpaceOnUse" x="0" y="0" width="269" height="76">
<path d="M268.291 0.46582H0.5V75.4557H268.291V0.46582Z" fill="white"/>
</mask>
<g mask="url(#mask22_1_34)">
<path d="M24.5214 23.6533C27.8636 29.7109 27.8636 37.4397 23.8947 43.9151C23.0592 45.3773 22.0148 46.6307 20.7615 47.6751C17.4193 41.6174 17.4193 33.8886 21.3881 27.4132C22.2237 25.951 23.2681 24.6977 24.5214 23.6533Z" fill="#F0CC1C"/>
</g>
<mask id="mask23_1_34" style="mask-type:luminance" maskUnits="userSpaceOnUse" x="0" y="0" width="269" height="76">
<path d="M268.291 0.46582H0.5V75.4557H268.291V0.46582Z" fill="white"/>
</mask>
<g mask="url(#mask23_1_34)">
<path d="M34.7574 75.2447C30.9974 74.4091 28.4908 70.6492 29.1175 66.8892C29.953 63.1293 33.7129 60.6227 37.4729 61.2493C41.2328 62.0849 43.7394 65.8448 43.1128 69.6047C42.4861 73.5736 38.7262 76.0802 34.7574 75.2447Z" fill="#F0CC1C"/>
</g>
<mask id="mask24_1_34" style="mask-type:luminance" maskUnits="userSpaceOnUse" x="0" y="0" width="269" height="76">
<path d="M268.291 0.46582H0.5V75.4557H268.291V0.46582Z" fill="white"/>
</mask>
<g mask="url(#mask24_1_34)">
<path d="M16.166 58.3278C18.046 55.4034 20.5526 53.1057 23.477 51.4346C24.5214 52.6879 25.7747 53.7324 27.2369 54.5679C33.5035 58.5367 41.2323 58.5367 47.4988 55.1946C48.3344 56.0301 48.961 56.8656 49.5877 57.9101C51.0499 59.9989 51.8854 62.2967 52.5121 64.8033C51.2588 63.3411 49.7966 61.8789 47.9166 60.8345C46.0366 59.79 44.1567 58.9545 42.2767 58.3278C35.5924 56.6567 28.4903 58.3278 23.477 62.9233L16.166 58.3278Z" fill="#006770"/>
</g>
<mask id="mask25_1_34" style="mask-type:luminance" maskUnits="userSpaceOnUse" x="0" y="0" width="269" height="76">
<path d="M268.291 0.46582H0.5V75.4557H268.291V0.46582Z" fill="white"/>
</mask>
<g mask="url(#mask25_1_34)">
<path d="M23.6855 51.4304C29.7432 48.0883 37.472 48.0882 43.9474 52.057C45.4096 52.8925 46.6629 53.937 47.7074 55.1904C41.6497 58.5325 33.9209 58.5326 27.4455 54.5637C25.9833 53.5193 24.73 52.4749 23.6855 51.4304Z" fill="#01AC99"/>
</g>
<mask id="mask26_1_34" style="mask-type:luminance" maskUnits="userSpaceOnUse" x="0" y="0" width="269" height="76">
<path d="M268.291 0.46582H0.5V75.4557H268.291V0.46582Z" fill="white"/>
</mask>
<g mask="url(#mask26_1_34)">
<path d="M231.11 45.1703C232.572 45.1703 233.825 43.917 233.825 42.4548C233.825 40.9926 232.572 39.7393 231.11 39.7393C229.648 39.7393 228.186 40.7837 228.186 42.2459C228.186 43.917 229.439 45.1703 231.11 45.1703Z" fill="white"/>
</g>
<mask id="mask27_1_34" style="mask-type:luminance" maskUnits="userSpaceOnUse" x="0" y="0" width="269" height="76">
<path d="M268.291 0.46582H0.5V75.4557H268.291V0.46582Z" fill="white"/>
</mask>
<g mask="url(#mask27_1_34)">
<path d="M233.407 55.6096V52.4763C233.407 50.3875 233.616 48.5075 233.616 46.6275C233.616 46.6275 231.109 47.0453 229.438 47.0453C227.141 47.0453 221.501 47.0453 221.501 47.0453C221.501 45.1653 221.71 43.2854 221.71 41.6143H220.665C219.412 44.7476 217.741 46.6275 214.816 47.672L215.025 48.7164C215.652 48.7164 216.279 48.7164 216.905 48.7164V53.5208C216.905 54.1474 216.905 54.7741 216.905 55.6096C216.905 59.7873 217.114 61.4584 220.874 61.4584C223.172 61.4584 224.634 61.0406 225.47 60.6229L225.261 59.5784C224.843 59.7873 224.634 59.7873 224.425 59.7873C221.501 59.7873 221.501 57.4896 221.501 53.5208C221.501 51.8497 221.501 50.3875 221.501 48.7164C222.545 48.7164 226.514 47.4631 227.976 48.9253C228.812 49.7608 228.812 51.223 228.812 53.103V55.6096C228.812 58.7429 228.394 59.9962 226.932 60.414V61.0406C228.185 60.8318 229.856 60.8318 231.318 60.8318C232.781 60.8318 234.243 60.8318 235.287 61.0406V60.414C233.825 59.9962 233.407 58.7429 233.407 55.6096Z" fill="white"/>
</g>
</g>
</g>
</g>
<defs>
<clipPath id="clip0_1_34">
<rect width="268" height="75" fill="white" transform="translate(0.5 0.0517578)"/>
</clipPath>
</defs>
</svg>
